<?xml version="1.0" encoding="UTF-8"?>
<svg id="Layer_1" data-name="Layer 1" xmlns="http://www.w3.org/2000/svg" xmlns:xlink="http://www.w3.org/1999/xlink" viewBox="0 0 1800 1800">
  <defs>
    <style>
      .cls-1 {
        fill: #767169;
      }

      .cls-2 {
        fill: #905538;
      }

      .cls-3, .cls-4, .cls-5, .cls-6, .cls-7, .cls-8, .cls-9, .cls-10, .cls-11, .cls-12, .cls-13, .cls-14, .cls-15, .cls-16, .cls-17, .cls-18, .cls-19, .cls-20, .cls-21, .cls-22, .cls-23, .cls-24 {
        stroke-linejoin: round;
      }

      .cls-3, .cls-4, .cls-5, .cls-6, .cls-7, .cls-8, .cls-9, .cls-11, .cls-12, .cls-13, .cls-15, .cls-16, .cls-17, .cls-18, .cls-19, .cls-20, .cls-21, .cls-22, .cls-23, .cls-24 {
        stroke-linecap: round;
      }

      .cls-3, .cls-6, .cls-8, .cls-9, .cls-10, .cls-12, .cls-13, .cls-14, .cls-15, .cls-16, .cls-20, .cls-21, .cls-22, .cls-23 {
        stroke: #713623;
      }

      .cls-3, .cls-15 {
        stroke-width: 14.82px;
      }

      .cls-3, .cls-25 {
        fill: #f2b36f;
      }

      .cls-26 {
        clip-path: url(#clippath-6);
      }

      .cls-27 {
        clip-path: url(#clippath-7);
      }

      .cls-28 {
        fill: #f4a5ab;
      }

      .cls-4, .cls-7, .cls-29, .cls-18 {
        fill: #70ad4a;
      }

      .cls-4, .cls-7, .cls-18, .cls-24 {
        stroke: #3f7334;
      }

      .cls-4, .cls-19, .cls-24 {
        stroke-width: 8.3px;
      }

      .cls-30 {
        clip-path: url(#clippath-4);
      }

      .cls-31 {
        fill: #cfef96;
      }

      .cls-5 {
        stroke-width: 6.27px;
      }

      .cls-5, .cls-6, .cls-8, .cls-11, .cls-12, .cls-14, .cls-15, .cls-17, .cls-19, .cls-20, .cls-21, .cls-23, .cls-24 {
        fill: none;
      }

      .cls-5, .cls-11, .cls-17, .cls-19 {
        stroke: #62180e;
      }

      .cls-32 {
        fill: #713623;
      }

      .cls-6, .cls-9 {
        stroke-width: 18.39px;
      }

      .cls-7 {
        stroke-width: 7.12px;
      }

      .cls-33 {
        fill: #f5ffab;
      }

      .cls-8 {
        stroke-width: 18.57px;
      }

      .cls-34 {
        fill: #daffab;
      }

      .cls-9, .cls-35 {
        fill: #807a72;
      }

      .cls-36, .cls-10 {
        fill: #ab7549;
      }

      .cls-10, .cls-14 {
        stroke-width: 18.98px;
      }

      .cls-37 {
        stroke: #f3e1af;
        stroke-width: 4.48px;
      }

      .cls-37, .cls-38, .cls-39, .cls-40 {
        fill: #bf9373;
        stroke-miterlimit: 10;
      }

      .cls-41 {
        clip-path: url(#clippath-1);
      }

      .cls-11 {
        stroke-width: 6.98px;
      }

      .cls-42 {
        fill: #e68e77;
      }

      .cls-12, .cls-22 {
        stroke-width: 13.3px;
      }

      .cls-43 {
        clip-path: url(#clippath-5);
      }

      .cls-44 {
        fill: #f4b0b5;
      }

      .cls-13, .cls-16, .cls-23 {
        stroke-width: 17.62px;
      }

      .cls-13, .cls-45 {
        fill: #856453;
      }

      .cls-46 {
        fill: #d9a063;
      }

      .cls-47 {
        clip-path: url(#clippath-3);
      }

      .cls-48 {
        fill: #bb8d6b;
      }

      .cls-49 {
        fill: #62180e;
      }

      .cls-50 {
        fill: #ce9268;
      }

      .cls-51 {
        fill: #91c954;
      }

      .cls-16, .cls-52 {
        fill: #cc9165;
      }

      .cls-17 {
        stroke-width: 8.67px;
      }

      .cls-53 {
        fill: #599136;
      }

      .cls-18 {
        stroke-width: 13.05px;
      }

      .cls-38 {
        stroke: #f2c798;
        stroke-width: 4.99px;
      }

      .cls-54 {
        fill: #735648;
      }

      .cls-55 {
        fill: #ca7062;
      }

      .cls-56 {
        fill: #3f7334;
      }

      .cls-57 {
        clip-path: url(#clippath-2);
      }

      .cls-39 {
        stroke-width: 6.19px;
      }

      .cls-39, .cls-40 {
        stroke: #bf9373;
      }

      .cls-20 {
        stroke-width: 19.07px;
      }

      .cls-58 {
        fill: #eaffb8;
      }

      .cls-21 {
        stroke-width: 17.79px;
      }

      .cls-59 {
        clip-path: url(#clippath);
      }

      .cls-22, .cls-60 {
        fill: #e6b183;
      }

      .cls-61 {
        fill: #b0794f;
      }

      .cls-40 {
        stroke-width: 5.93px;
      }
    </style>
    <clipPath id="clippath">
      <path class="cls-29" d="M1593.66,1350.27c8.15-29.44,54.41-163.92,59.65-208.33,15.51-131.46-464.98-25.95-753.89-25.95s-785.58-104.62-763.8,25.95c7.9,47.37,57.74,190.98,67.15,220.04,41.07,126.84,314.19,206.29,696.65,206.29s653.67-71.44,694.24-218Z"/>
    </clipPath>
    <clipPath id="clippath-1">
      <path class="cls-51" d="M1722.52,1042.35c0-30.55,20.58-130.37-19.38-156.95-123.43-82.1-460.38-69.18-803.83-69.18s-677.62-12.92-801.05,69.18c-39.96,26.58-22.16,126.41-22.16,156.95,0,124.89,368.56,226.14,823.21,226.14s823.21-101.25,823.21-226.14Z"/>
    </clipPath>
    <clipPath id="clippath-2">
      <path class="cls-10" d="M138.98,919.68c-4.84-33.66,9.08-50.27,9.08-50.27,4.67-5.57,7.78-6.01,13.32-13.32,10.25-13.53,9.97-25.7,13.6-37.64,5.51-18.13,17.96-28.96,31.21-40.48,37.41-32.54,89.39-28.31,99.93-27.25,11.1-17.6,47.76-70.77,119.91-98.11,75.56-28.63,141.16-10.39,160.49-4.24,10.77-12.28,51.17-55.39,119.28-65.58,80.97-12.11,139.73,31.47,150.22,39.54,27.88-22.86,48.8-25.6,62.38-24.22,24.18,2.45,30.06,18.43,57.53,20.59,26.31,2.07,29.01-11.95,56.32-12.11,37.27-.22,43,25.82,74.49,23.62,30.45-2.12,34.89-27.15,66.01-26.65,17.87.29,17.62,8.57,47.84,16.96,35.61,9.88,46.94,1.44,68.43,10.9,13.29,5.85,30.2,18.42,44.21,48.45,16.39-4.81,60.37-15.3,110.83,2.42,71.69,25.18,100.87,87.83,105.98,99.32,44.3-1.11,82.43,19.22,96.29,51.48,6.92,16.11,6.38,31.93,4.57,43.03,2.2,2.69,5.23,6.94,7.55,12.68,0,0,5.91,14.64,1.93,33.32-1.41,6.63-32.3,97.92-404.67,153.22-101.64,15.09-265.59,33-476.01,23.62-41.55-1.85-151.02-7.7-290.79-32.78-293.3-52.64-346.57-123.01-349.95-146.48Z"/>
    </clipPath>
    <clipPath id="clippath-3">
      <circle class="cls-16" cx="881.85" cy="953.52" r="103.01"/>
    </clipPath>
    <clipPath id="clippath-4">
      <circle class="cls-13" cx="1284.72" cy="856.5" r="103.01"/>
    </clipPath>
    <clipPath id="clippath-5">
      <circle class="cls-9" cx="480.58" cy="804.66" r="107.52"/>
    </clipPath>
    <clipPath id="clippath-6">
      <circle class="cls-22" cx="1164.43" cy="635.77" r="77.78"/>
    </clipPath>
    <clipPath id="clippath-7">
      <circle class="cls-3" cx="696.84" cy="639.31" r="86.62"/>
    </clipPath>
  </defs>
  <path class="cls-33" d="M471.95,1434.55c-11.71,5.7-16.16,10.88-21.06,24.5-.29.8-1.26.8-1.55,0-4.9-13.63-9.35-18.81-21.06-24.5-.69-.33-.69-1.47,0-1.8,11.71-5.7,16.16-10.88,21.06-24.51.29-.8,1.26-.8,1.55,0,4.9,13.63,9.35,18.81,21.06,24.51.69.33.69,1.47,0,1.8Z"/>
  <path class="cls-58" d="M1479.99,1158.96c-17.56,8.81-23.91,16.01-30.04,34.07-.36,1.06-1.87,1.19-2.4.2-9.06-16.78-16.52-22.82-35.3-28.58-1.1-.34-1.23-1.79-.19-2.31,17.56-8.81,23.91-16.02,30.04-34.08.36-1.06,1.87-1.19,2.4-.2,9.06,16.78,16.53,22.82,35.31,28.58,1.1.34,1.23,1.79.19,2.31Z"/>
  <path class="cls-34" d="M335.62,1266.78c-6.96,4.65-9.34,8.34-11.27,17.45-.11.54-.73.62-.99.14-4.31-8.25-7.6-11.16-15.55-13.76-.47-.15-.57-.88-.16-1.15,6.96-4.65,9.34-8.34,11.27-17.45.11-.54.73-.62.99-.14,4.31,8.25,7.6,11.16,15.55,13.77.47.15.57.88.16,1.15Z"/>
  <g>
    <path class="cls-56" d="M1490.82,1075.93c101.29,0,168.44,15.55,162.49,66-5.24,44.42-51.5,178.89-59.65,208.33-40.58,146.56-311.78,218-694.24,218s-655.58-79.45-696.65-206.29c-9.41-29.06-59.25-172.67-67.15-220.04-8.37-50.17,59.79-65.62,163.33-65.61,165.9,0,422.58,39.67,600.47,39.67s428.77-40.06,591.4-40.06M1490.82,1058.46c-80.31,0-179.47,9.44-284.45,19.43-106.56,10.14-216.76,20.63-306.96,20.63s-201.06-10.31-308.76-20.28c-107.69-9.97-209.42-19.39-291.72-19.39-93.4,0-145.38,12.2-168.55,39.55-10.8,12.75-14.95,28.8-12.01,46.41,6.78,40.63,41.3,143.51,59.85,198.78,3.54,10.55,6.33,18.88,7.92,23.77,11.34,35.02,37.99,66.92,79.23,94.83,38.62,26.14,90.02,48.77,152.77,67.26,124.99,36.83,291.41,56.29,481.28,56.29,96.61,0,186.13-4.56,266.07-13.56,81.6-9.19,153.69-23.05,214.27-41.21,63.07-18.91,114.36-42.71,152.44-70.73,40.95-30.13,67.29-65.56,78.29-105.3,2.13-7.68,7.31-23.93,13.32-42.74,17.06-53.44,42.84-134.2,46.85-168.2,2.1-17.77-2.75-33.85-14.02-46.53-13.2-14.85-34.87-25.1-66.25-31.35-25.85-5.15-58.43-7.65-99.58-7.65h0Z"/>
    <g>
      <path class="cls-51" d="M899.31,1278.01c-220.71,0-428.34-23.64-584.62-66.57-76.55-21.03-136.8-45.61-179.08-73.08-45.8-29.75-69.03-62.05-69.03-96.01,0-5.5-.65-13.87-1.41-23.56-1.63-20.92-3.87-49.56-1.52-75.6,2.98-33.08,12.58-54.58,29.34-65.73,44.52-29.61,118.29-49.21,225.53-59.93,101.95-10.19,222.96-11.59,338.56-11.59,38.74,0,79.18.18,118.28.36,40.51.19,82.39.38,123.96.38s83.45-.19,123.98-.38c39.21-.18,79.77-.36,118.66-.36,116.04,0,237.54,1.4,340.02,11.59,107.87,10.72,181.94,30.33,226.44,59.93,36.43,24.23,29.86,93.39,25.52,139.15-1.01,10.66-1.89,19.86-1.89,25.74,0,33.96-23.22,66.26-69.03,96.01-42.28,27.46-102.54,52.05-179.08,73.08-156.28,42.93-363.9,66.57-584.62,66.57Z"/>
      <path class="cls-56" d="M657.07,815.47c78.37,0,160.05.74,242.25.74s164.01-.74,242.64-.74c249.84,0,467.3,7.48,561.19,69.92,39.96,26.58,19.38,126.41,19.38,156.95,0,124.89-368.56,226.14-823.21,226.14s-823.21-101.25-823.21-226.14c0-30.55-17.81-130.37,22.16-156.95,93.89-62.45,309.71-69.93,558.81-69.92M657.07,796.42c-115.84,0-237.14,1.41-339.5,11.64-52.21,5.22-95.42,12.28-132.1,21.6-41.16,10.46-73.14,23.5-97.75,39.88-19.32,12.85-30.3,36.67-33.55,72.8-2.42,26.83-.14,55.94,1.52,77.19.74,9.49,1.38,17.69,1.38,22.82,0,19.53,6.9,38.7,20.5,56.96,12.17,16.34,29.96,32.16,52.87,47.05,43.11,28,104.26,52.99,181.75,74.27,76.53,21.02,165.53,37.52,264.51,49.02,102.22,11.88,210.76,17.9,322.63,17.9s220.41-6.02,322.63-17.9c98.99-11.5,187.98-27.99,264.51-49.02,77.49-21.29,138.64-46.28,181.75-74.27,22.91-14.88,40.7-30.71,52.87-47.05,13.6-18.26,20.5-37.42,20.5-56.96,0-5.43.85-14.42,1.84-24.84,4.56-48.02,11.45-120.59-29.72-147.98-24.62-16.38-56.69-29.42-98.04-39.88-36.83-9.32-80.25-16.38-132.74-21.6-102.89-10.23-224.68-11.64-340.96-11.64-38.92,0-79.48.18-118.71.36-40.52.18-82.41.38-123.93.38s-83.43-.19-123.94-.38c-39.11-.18-79.55-.36-118.31-.36h0Z"/>
    </g>
    <g>
      <path class="cls-29" d="M1593.66,1350.27c8.15-29.44,54.41-163.92,59.65-208.33,15.51-131.46-464.98-25.95-753.89-25.95s-785.58-104.62-763.8,25.95c7.9,47.37,57.74,190.98,67.15,220.04,41.07,126.84,314.19,206.29,696.65,206.29s653.67-71.44,694.24-218Z"/>
      <g class="cls-59">
        <path class="cls-53" d="M141,1211.38s120.29,111.51,469.08,134.04c356.17,23.01,537.25,4.84,867.92-64.2,0,0-18.81,141.71-90.26,210.75-71.44,69.04-105.43,65.41-105.43,65.41l411.89-7.27,79.94-474.19-7.27-271.27L11.8,839.51l-47.24,327.26,176.44,44.61Z"/>
        <path class="cls-34" d="M178.17,1147.18s54.98,266.15,100.14,314.15c45.16,48-174.76-63.93-174.76-63.93,2.4-89.23,4.8-178.47,7.2-267.7,22.47,5.83,44.94,11.65,67.42,17.48Z"/>
      </g>
    </g>
    <path class="cls-56" d="M657.05,815.47c78.37,0,160.05.74,242.25.74s164.01-.74,242.64-.74c249.84,0,467.3,7.48,561.19,69.92,39.96,26.58,19.38,126.41,19.38,156.95,0,124.89-368.56,226.14-823.21,226.14s-823.21-101.25-823.21-226.14c0-30.55-17.81-130.37,22.16-156.95,93.89-62.45,309.71-69.93,558.81-69.92M657.05,796.5c-115.84,0-237.14,1.41-339.49,11.64-52.2,5.22-95.41,12.28-132.09,21.6-41.15,10.45-73.12,23.49-97.73,39.86-19.3,12.84-30.26,36.63-33.52,72.75-2.42,26.83-.14,55.93,1.51,77.18.74,9.49,1.38,17.69,1.38,22.83,0,19.52,6.89,38.67,20.48,56.91,12.16,16.33,29.94,32.15,52.85,47.03,43.1,27.99,104.24,52.98,181.73,74.26,76.53,21.02,165.52,37.51,264.5,49.01,102.21,11.88,210.76,17.9,322.62,17.9s220.41-6.02,322.62-17.9c98.98-11.5,187.97-27.99,264.5-49.01,77.49-21.29,138.63-46.27,181.73-74.26,22.9-14.88,40.69-30.7,52.85-47.03,13.59-18.25,20.48-37.39,20.48-56.91,0-5.43.85-14.43,1.84-24.84,4.56-48,11.45-120.54-29.69-147.91-24.61-16.37-56.67-29.41-98.01-39.87-36.83-9.31-80.24-16.38-132.73-21.6-102.89-10.23-224.67-11.64-340.96-11.64-38.92,0-79.48.19-118.71.36-40.52.18-82.41.38-123.93.38s-83.43-.19-123.94-.38c-39.11-.18-79.55-.36-118.31-.36h0Z"/>
    <g>
      <path class="cls-51" d="M1722.52,1042.35c0-30.55,20.58-130.37-19.38-156.95-123.43-82.1-460.38-69.18-803.83-69.18s-677.62-12.92-801.05,69.18c-39.96,26.58-22.16,126.41-22.16,156.95,0,124.89,368.56,226.14,823.21,226.14s823.21-101.25,823.21-226.14Z"/>
      <g class="cls-41">
        <path class="cls-53" d="M1626.97,794.32c7.58,21.6,45.71,137.14-14.53,261.73-57.59,119.09-164.24,162.05-187.13,170.68,19.05,6.49,177.59,57.82,297.22-32.7,142.47-107.81,149.85-356.35,62.52-413.75-18.38-12.08-62.39-29.78-158.06,14.05Z"/>
        <path class="cls-34" d="M94.16,865.17c-20.36,133.34-7.31,187.16,9.39,211.19,54.13,77.89,55.75,79.82,55.75,79.82,9.32,11.1,14.78,16.69,13.19,19.38-3.63,6.16-42.23-5.74-180.6-74.49,2.4-89.23,4.8-178.47,7.2-267.7,31.69,10.6,63.38,21.2,95.07,31.8Z"/>
      </g>
    </g>
    <g>
      <path class="cls-31" d="M899.31,1157.34c-220.71,0-428.34-23.64-584.62-66.57-76.55-21.03-136.8-45.61-179.08-73.08-45.8-29.75-69.03-62.05-69.03-96.01s23.22-66.26,69.03-96.01c42.28-27.46,102.54-52.05,179.08-73.08,156.28-42.93,363.9-66.58,584.62-66.58s428.34,23.64,584.62,66.58c76.55,21.03,136.8,45.61,179.08,73.08,45.8,29.75,69.03,62.05,69.03,96.01s-23.22,66.26-69.03,96.01c-42.28,27.46-102.54,52.05-179.08,73.08-156.28,42.93-363.9,66.57-584.62,66.57Z"/>
      <path class="cls-56" d="M899.31,695.54c454.64,0,823.21,101.25,823.21,226.14s-368.56,226.14-823.21,226.14-823.21-101.25-823.21-226.14,368.56-226.14,823.21-226.14M899.31,676.49c-111.86,0-220.41,6.02-322.63,17.9-98.99,11.5-187.98,27.99-264.51,49.02-77.49,21.29-138.64,46.28-181.75,74.27-22.91,14.88-40.7,30.71-52.87,47.05-13.6,18.26-20.5,37.42-20.5,56.96s6.9,38.7,20.5,56.96c12.17,16.34,29.96,32.16,52.87,47.05,43.11,28,104.26,52.99,181.75,74.27,76.53,21.02,165.53,37.52,264.51,49.02,102.22,11.88,210.76,17.9,322.63,17.9s220.41-6.02,322.63-17.9c98.99-11.5,187.98-27.99,264.51-49.02,77.49-21.29,138.64-46.28,181.75-74.27,22.91-14.88,40.7-30.71,52.87-47.05,13.6-18.26,20.5-37.42,20.5-56.96s-6.9-38.7-20.5-56.96c-12.17-16.34-29.96-32.16-52.87-47.05-43.11-28-104.26-52.99-181.75-74.27-76.53-21.02-165.53-37.52-264.51-49.02-102.22-11.88-210.76-17.9-322.63-17.9h0Z"/>
    </g>
    <g>
      <path class="cls-31" d="M899.31,1115c-205,0-397.87-21.46-543.08-60.41-71.3-19.13-127.47-41.52-166.95-66.56-43.48-27.58-65.52-57.78-65.52-89.76s22.04-62.19,65.52-89.76c39.48-25.04,95.65-47.44,166.95-66.56,145.22-38.96,338.09-60.41,543.08-60.41s397.87,21.46,543.08,60.41c71.3,19.13,127.47,41.52,166.95,66.56,43.48,27.58,65.52,57.78,65.52,89.76s-22.05,62.19-65.52,89.76c-39.48,25.04-95.65,47.44-166.95,66.56-145.22,38.96-338.09,60.41-543.08,60.41Z"/>
      <path class="cls-56" d="M899.31,693.39c421.78,0,763.69,91.73,763.69,204.88s-341.92,204.88-763.69,204.88-763.69-91.73-763.69-204.88,341.92-204.88,763.69-204.88M899.31,669.67c-103.99,0-204.9,5.47-299.94,16.25-92.11,10.45-174.95,25.45-246.22,44.57-72.46,19.44-129.73,42.32-170.22,68-21.87,13.87-38.91,28.71-50.65,44.1-13.52,17.73-20.38,36.46-20.38,55.68s6.85,37.95,20.38,55.68c11.74,15.39,28.78,30.23,50.65,44.1,40.49,25.68,97.77,48.56,170.22,68,71.27,19.12,154.11,34.11,246.22,44.57,95.04,10.78,195.95,16.25,299.94,16.25s204.9-5.47,299.94-16.25c92.11-10.45,174.95-25.45,246.22-44.57,72.46-19.44,129.73-42.32,170.22-68,21.87-13.87,38.91-28.71,50.65-44.1,13.52-17.73,20.38-36.46,20.38-55.68s-6.85-37.95-20.38-55.68c-11.74-15.39-28.78-30.23-50.65-44.1-40.49-25.68-97.77-48.56-170.22-68-71.27-19.12-154.11-34.11-246.22-44.57-95.04-10.78-195.95-16.25-299.94-16.25h0Z"/>
    </g>
    <g>
      <path class="cls-36" d="M138.98,919.68c-4.84-33.66,9.08-50.27,9.08-50.27,4.67-5.57,7.78-6.01,13.32-13.32,10.25-13.53,9.97-25.7,13.6-37.64,5.51-18.13,17.96-28.96,31.21-40.48,37.41-32.54,89.39-28.31,99.93-27.25,11.1-17.6,47.76-70.77,119.91-98.11,75.56-28.63,141.16-10.39,160.49-4.24,10.77-12.28,51.17-55.39,119.28-65.58,80.97-12.11,139.73,31.47,150.22,39.54,27.88-22.86,48.8-25.6,62.38-24.22,24.18,2.45,30.06,18.43,57.53,20.59,26.31,2.07,29.01-11.95,56.32-12.11,37.27-.22,43,25.82,74.49,23.62,30.45-2.12,34.89-27.15,66.01-26.65,17.87.29,17.62,8.57,47.84,16.96,35.61,9.88,46.94,1.44,68.43,10.9,13.29,5.85,30.2,18.42,44.21,48.45,16.39-4.81,60.37-15.3,110.83,2.42,71.69,25.18,100.87,87.83,105.98,99.32,44.3-1.11,82.43,19.22,96.29,51.48,6.92,16.11,6.38,31.93,4.57,43.03,2.2,2.69,5.23,6.94,7.55,12.68,0,0,5.91,14.64,1.93,33.32-1.41,6.63-32.3,97.92-404.67,153.22-101.64,15.09-265.59,33-476.01,23.62-41.55-1.85-151.02-7.7-290.79-32.78-293.3-52.64-346.57-123.01-349.95-146.48Z"/>
      <g class="cls-57">
        <path class="cls-50" d="M255.99,748.56c-2.64,5.28-8.05,6.16-14.53,16.35-3.23,5.07-9.04,14.2-6.06,19.38,2.62,4.54,10.88,4.08,35.73,1.51,25.87-2.67,38.81-4.01,41.48-5.15,21.17-9.02,22.6-27.68,39.51-48.01,16.53-19.88,36.02-27.12,67.69-38.9,71.74-26.67,147.28-14.75,174.72-9.39,15.27-14.09,49.79-41.88,101.44-51.17,89.53-16.11,157.26,36.58,168.26,45.42,4.82-4.4,38.24-33.86,85.97-27.66,38.25,4.97,60.98,29.61,66.64,36.14,9.28,4.99,23.8,10.86,40.37,8.48,15.29-2.2,23.62-10.19,42.39-21.4,11.06-6.61,27.95-15.66,50.65-23.85,30.7-6.06,74.21-9.11,110.04,14.57,26.44,17.47,22.67,29.75,47.24,44.05,55.81,32.5,109-16.54,148.78,15.9,21.74,17.73,14.49,39.06,43,54.3,16.4,8.77,42.48,13.75,53.69,3.02,21.9-20.97-14.91-100.06-40.37-135.85-77.45-108.88-228.54-68.1-549.09-100.94-300.5-30.78-377.76-87.62-527.69-26.24-122.56,50.17-215.57,147.35-201.24,183.3,4.88,12.25,28.22,32.44,21.38,46.13Z"/>
        <path class="cls-2" d="M159.97,851.45c1.27.2,1.81,7.08,2.49,15.54.88,11.1.06,14.59,1.96,15.54,3.59,1.8,8.4-9.77,21.35-14.79,1.63-.63,14.45-5.37,27.3,1.06,7.48,3.74,11.6,9.57,13.42,12.57-2.06-.18-20.82-1.54-33.21,12.87-1.24,1.45-12.34,14.74-8.28,28.46,4.22,14.24,23.48,24.65,45.82,20.19,2.62,3.3,5.25,6.59,7.87,9.89-.3-2.97-.9-12.48,5.25-21.2,7.92-11.24,20.94-12.5,25.23-12.92,4.17-.4,21.93-2.12,28.87,9.69,4.66,7.93,1.65,17.2.81,19.58-1.46-2.44-4.5-6.73-9.89-9.69-11.62-6.39-23.78-.93-25.84,0-3.06,1.37-13.42,6.02-15.34,15.95-.26,1.35-1.47,8.49,2.83,12.72,4.94,4.85,14.37,3.12,19.99.4,8.05-3.89,8.87-10.12,15.34-11.1,4.49-.68,8.59,1.63,11.3,3.63,3.46-3.19,10.83-9.12,21.8-11.51,3.93-.86,22.18-4.28,33.51,6.06,7.17,6.54,5.5,13.06,11.71,26.85,5.65,12.53,13.41,21.32,19.18,26.85,1.69-2.92,5.78-9.04,13.52-13.32,10.43-5.77,20.53-4.38,23.62-3.84.75,7.09,2.72,16.68,7.87,26.85,12.54,24.73,34.99,35.12,42.63,38.26-32.77-5.79-324.2-58.95-327.27-143.03-.7-19.24,12.89-62.09,16.15-61.57Z"/>
        <path class="cls-2" d="M620.28,1079.71l165.54,13.44s-58.78-33.57-93.91-33.57-71.63,20.13-71.63,20.13Z"/>
        <path class="cls-2" d="M970.55,1095.49s85.94-45.61,92.6-63.17c0,0,101.14,47.84,167.15-10.3,0,0,17.56,33.91,84.79,19.99,67.22-13.93,59.35-14.53,98.11-57.53,38.76-43,51.48-36.94,114.46-25.44,62.98,11.51,65.41-50.87,61.17-64.2s-18.98-10.09-26.65,1.61c-7.67,11.71-34.92-8.88-10.7-23.01,24.22-14.13,37.95-9.49,39.57-7.87,0,0-5.05-41.18-57.53-44.21,0,0,45.42-4.64,59.96-34.52,14.53-29.88,156.15,51.68,156.15,51.68l-133.54,186.23-534.15,104.47-111.37-33.73Z"/>
        <ellipse class="cls-48" cx="1097.06" cy="865.17" rx="14.53" ry="12.11"/>
        <ellipse class="cls-45" cx="724.61" cy="830.65" rx="21.2" ry="17.56" transform="translate(-262.15 339.37) rotate(-22.43)"/>
        <path class="cls-32" d="M832.09,786.4c-8.15-2.67-18.34,2.9-25.4,6.78-6.19,3.4-12.02,9.15-11.11,16.81.97,8.24,9.49,10.98,16.51,12.37,8.05,1.59,16.63,1.73,24.52-.73,5.81-1.81,14.79-5.69,15.98-12.47,1.22-6.93-4.06-15.52-9.27-19.63-6.7-5.28-14.72-4.54-22.14-1.21-7.25,3.26-16.76,7.63-21.92,13.91-4.42,5.38-3.22,14.44,5.43,11.7,2.76-.87,24.87-17.54,24.48-17.88l1.31-4.96c-7,2.49-14,4.97-21.01,7.46-3.55,1.26-2.16,6.73,1.58,5.72,6.1-1.66,11.37-4.87,16.61-8.31,3.19-2.09.4-6.91-2.99-5.12-6.23,3.28-11.81,7.42-16.78,12.41-2.3,2.31.78,6.67,3.59,4.66s5.47-3.92,8.21-5.88c3.1-2.22.48-6.79-2.99-5.12-6.25,3-12.33,6.27-18.29,9.82-3.28,1.95-.35,6.98,2.99,5.12,3.76-2.09,7.19-4.53,10.43-7.34-1.55-1.2-3.1-2.4-4.66-3.59-.96,2.09-2.04,3.93-3.52,5.71-2.22,2.66.49,6.01,3.59,4.66,3.56-1.56,6.89-3.36,10.14-5.5l-3.59-4.66c-2.47,2.73-4.94,5.46-7.41,8.19-2,2.21-.05,5.63,2.88,4.96,2.78-.64,4.89-1.9,6.66-4.16,2.33-2.97-1.23-6.72-4.19-4.19-1.99,1.7-3.51,3.59-4.77,5.87s.83,4.91,3.35,4.36c4.33-.96,7.94-2.88,11.29-5.76,2.53-2.17-.83-6.6-3.59-4.66-2.48,1.74-4.38,3.64-6.15,6.1-1.67,2.33,1.08,4.74,3.35,4.36,6.01-1.01,10.63-4.56,15.33-8.2,3.62-2.81,10.7-6.1,10.81-11.3-1.94.26-3.88.53-5.82.79,1.65,3.96,1.26,7.43-1.28,10.88-1.82,2.47,1.66,5.49,4.06,4.06,3.12-1.86,6.24-3.73,9.35-5.59-1.45-1.12-2.9-2.23-4.36-3.35-.79,1.88-2,3.39-3.64,4.6,1.35,1.35,2.7,2.7,4.06,4.06l1.06-.75-2.28-5.42c-4.75,3.26-9.92,5.66-15.6,6.78-2.74.54-5.74.98-8.53.75-2.81-.24-4.73-1.5-7.16-2.79-3.02-1.6-5.83,2.13-3.59,4.66,2.49,2.82,5.98,4.44,9.77,4.33,3.12-.09,7.61-1.65,7.64-5.35.06-7.43-16.45-7.2-20.31-3.78-2.48,2.2-1.47,5.75,1.32,7.1,4.15,2.01,10.38-.47,14.5-1.5,5.39-1.36,11.27-2.95,16.01-5.96,1.54-.98,2.92-2.16,3.84-3.76.68-1.19,1.12-6.21,2.11-6.59l-3.75-2.86c-.19,2.26-.39,4.53-.58,6.79,1.94-.26,3.88-.53,5.82-.79-.94-4.89-3.13-13.51-9.67-13.06-6.47.45-12.3,8.86-15.58,13.63-1.73,2.52,1.61,5.49,4.06,4.06,4.04-2.37,7.23-5.35,10.02-9.1,2.02-2.71-2.39-6.03-4.66-3.59-2.86,3.08-5.85,5.98-9.01,8.76-2.13,1.87.13,6.1,2.88,4.96,6.34-2.64,12.48-5.62,18.43-9.05-1.2-.15-2.4-.31-3.59-.46,1.96,1.96,3.91,3.93,5.87,5.89,2.31,2.32,6.62-.75,4.66-3.59-3.62-5.22-11.41-11.67-18.33-9.1-5.79,2.15-5.35,11.29,1.46,10.81,3.79-.27,3.81-6.2,0-5.93,4.35-.31,9.48,3.95,11.74,7.22,1.55-1.2,3.1-2.4,4.66-3.59-1.96-1.96-3.91-3.93-5.87-5.89-.93-.93-2.46-1.12-3.59-.46-5.5,3.17-11.15,6.02-17.01,8.45.96,1.65,1.92,3.3,2.88,4.96,3.16-2.78,6.14-5.68,9.01-8.76-1.55-1.2-3.1-2.4-4.66-3.59-2.16,2.91-4.77,5.14-7.89,6.97,1.35,1.35,2.7,2.7,4.06,4.06,2.15-3.13,4.6-6.04,7.48-8.53,4.79-4.12,6.2,2.77,6.93,6.53.67,3.49,5.56,2.33,5.82-.79.19-2.26.39-4.53.58-6.79.15-1.8-2.04-3.52-3.75-2.86-5.81,2.25-3.58,8.85-8.52,11.61-1.67.93-22.88,8.36-23.36,6.93l-.76,2.88c1.71-2.17,6.87-.36,9.14-.71,1.44.45,1.64.3.61-.45-.54-.79-1.32-1.04-2.35-.74-1.59-.63-2.7-1.14-3.88-2.48-1.2,1.55-2.4,3.1-3.59,4.66,2.52,1.34,4.65,2.9,7.51,3.36,3.23.52,6.62.23,9.84-.23,7.21-1.01,13.94-3.76,19.93-7.87,2.59-1.78,1.08-6.63-2.28-5.42-2.09.76-3.29,1.69-4.61,3.47-1.73,2.34,1.72,5.79,4.06,4.06,3-2.22,4.93-4.71,6.36-8.15,1.04-2.48-2.32-4.57-4.36-3.35-3.12,1.86-6.24,3.73-9.35,5.59,1.35,1.35,2.7,2.7,4.06,4.06,3.35-4.54,4.06-10.24,1.88-15.45-1.22-2.92-5.75-2.81-5.82.79-.03,1.39-9.27,7.28-10.58,8.27-3.45,2.59-6.87,4.78-11.2,5.51,1.12,1.45,2.23,2.9,3.35,4.36,1.18-1.64,2.36-2.81,4.02-3.97l-3.59-4.66c-2.58,2.22-5.38,3.51-8.68,4.24,1.12,1.45,2.23,2.9,3.35,4.36,1.04-1.87,2.23-3.29,3.85-4.67-1.4-1.4-2.8-2.8-4.19-4.19-1.11,1.41-2.29,2.23-4.04,2.63.96,1.65,1.92,3.3,2.88,4.96,2.47-2.73,4.94-5.46,7.41-8.19,2.16-2.38-.65-6.6-3.59-4.66-3.24,2.14-6.58,3.95-10.14,5.5,1.2,1.55,2.4,3.1,3.59,4.66,1.8-2.15,3.27-4.35,4.45-6.91,1.4-3.05-2.03-5.87-4.66-3.59-2.87,2.48-5.92,4.57-9.23,6.41l2.99,5.12c5.95-3.55,12.04-6.82,18.29-9.82l-2.99-5.12c-2.74,1.96-5.47,3.92-8.21,5.88,1.2,1.55,2.4,3.1,3.59,4.66,4.63-4.65,9.77-8.42,15.58-11.48l-2.99-5.12c-4.81,3.16-9.58,6.19-15.2,7.71.53,1.91,1.05,3.81,1.58,5.72,7-2.49,14-4.97,21.01-7.46,1.97-.7,3.09-3.36,1.31-4.96-4.71-4.22-9.47,1.07-13.12,4.12-3.13,2.62-6.32,5.18-9.66,7.54-1.65,1.16-3.31,2.34-5.05,3.36-1.21.71-2.56,2-2.9.88-1.11-3.57,15.97-11.53,18.3-12.74,8.13-4.2,16.71-5.28,22.38,3.13,2.12,3.15,5,8.74,2.12,12.09-2.11,2.46-5.98,4.11-8.96,5.18-7.26,2.61-15.3,2.69-22.81,1.2-3.09-.61-6.79-1.25-9.41-3.09-4.79-3.38-2.72-8.97.9-12.24,2.96-2.68,7.05-4.37,10.65-5.94,4.44-1.94,9.84-4.84,14.7-3.25,3.63,1.19,5.19-4.53,1.58-5.72h0Z"/>
        <path class="cls-32" d="M940.49,799.5c.21-.02.44-.06.66-.04-.32-.04.1.04.18.09-.24-.15.17.12.19.14-.24-.2.27.24.32.29.6.61,1.01,1.47,1.45,2.29.76,1.41,2.71,1.85,4.06,1.06,1.43-.83,1.82-2.64,1.06-4.06-1.59-2.96-4.14-6.13-7.91-5.7-1.59.18-2.96,1.23-2.96,2.96,0,1.46,1.36,3.15,2.96,2.96h0Z"/>
        <path class="cls-32" d="M951.24,806.12c.57,1.06.19,3.09-1.19,3.61-1.49.57-2.52,2-2.07,3.65.39,1.43,2.14,2.65,3.65,2.07,4.93-1.89,7.28-7.58,4.73-12.33-1.81-3.36-6.93-.37-5.12,2.99h0Z"/>
        <path class="cls-32" d="M939.25,805.91c-.95,1.4-.83,3.31-.05,4.75s2.36,2.41,4.03,2.44c1.55.03,3.04-1.38,2.96-2.96s-1.3-2.93-2.96-2.96c-.5,0,.76.18.3.03l.49.2c-.18-.11-.14-.08.1.1.44.35.12.05.02-.02.31.43.4.54.28.35-.04-.05-.07-.11-.1-.16.06-.02.26.83.14.3-.07-.33,0,.81.04.36.04-.49-.22.76-.05.31l-.21.48c.04-.08.08-.15.13-.21.87-1.29.29-3.34-1.06-4.06-1.5-.79-3.13-.31-4.06,1.06h0Z"/>
        <path class="cls-32" d="M933.11,742.31c-2.77,1.82-5.63,3.54-8.32,5.49-1.75,1.27-3.35,2.82-3.72,5.05-.83,4.96,4.16,8.25,8.19,9.66,4.98,1.74,9.59,1.07,12.94-3.36,3.05-4.02,1.57-9.33-2.05-12.44-4.3-3.68-9.25-3.43-13.16.63-3.48,3.61-.91,8.84,4.03,8.89,3.89.05,8.23-3.73,7.13-7.91-1.5-5.66-7.25-1.7-9.18,1.23-1.81,2.74,1.61,5.12,4.06,4.06,3.53-1.53,6.07-5.77,5.23-9.55-1.65.96-3.3,1.92-4.96,2.88,1.1.96,3.52,4.06,3.04,4.89l1.77-1.36-.51.09,3.75,2.86c.17-4.12,2.41-8.36-1.68-11.38-3.39-2.5-7.67-1.15-10.71,1.18-3.5,2.68-6.13,5.87-5.88,10.47.23,4.19,2.34,7.76,6.86,8.21,7.11.71,17.76-8.97,9.42-14.98-2.89-2.08-7.92-1.94-8.62,2.3-.8,4.86,4.54,5.84,8.05,5.22-1.12-1.45-2.23-2.9-3.35-4.36-1.42,3.25-3.83,6.79.3,9.27,1.81,1.09,4.66-.28,4.46-2.56-.16-1.81-.78-4.24-.5-6.05l-1.36,1.77-.65-2.23,2.1-.87c1.21-.12.33,2.87,1.97,1.76.34-.23.59-.82.73-1.2.38-1.04.21-1.9-.26-2.87-.41-.84-1.61-1.57-2.56-1.47l-.25.03c-1.4.16-2.39.83-2.86,2.18l-.08.23c-1.26,3.61,4.47,5.16,5.72,1.58l.08-.23c-.95.73-1.91,1.45-2.86,2.18l.25-.03c-.85-.49-1.71-.98-2.56-1.47l.11.23v-2.99c-.6,1.23-1.67,1.76-1.83,3.39-.15,1.52.53,3.03,1.76,3.91,2.74,1.98,6.28-.28,6.33-3.49s-3.42-5.21-6.44-4.47c-4.67,1.15-3.07,6.57-2.76,10.12l4.46-2.56c1.31.79,1.23.2,1.83-1.16,1.07-2.44-.67-4.83-3.35-4.36,2.08-.37-1.47,5.03-2.36,5.7-.82.62-2.14,1.31-3.12,1.5-3.51.69-3.14-3.74-1.76-5.64.62-.85,4.57-4.72,5.8-3.64.93.81-.32,5.67-.37,6.78-.08,2.08,1.95,3.18,3.75,2.86,6.75-1.21,1.03-11.16-1.69-13.53-2.24-1.95-5.62-.09-4.96,2.88.25,1.14-1.7,2.51-2.5,2.86,1.35,1.35,2.7,2.7,4.06,4.06.31-.56.73-1.01,1.27-1.36l-2.28-.3c-1.11-.58-.11-1.39-1.37-.74-.32.17-1.39.86-.52,1.38l.75-.71c.55-.78,1.24-.99,2.07-.63,1,.09,1.48.35,2.22.97,2.88,2.43,1.22,6.78-2.71,6.38-1.39-.14-7.08-1.79-6.44-3.98.33-1.14,3.2-2.3,4.13-2.92l4.89-3.22c3.18-2.09.21-7.23-2.99-5.12h0Z"/>
        <path class="cls-52" d="M1424.82,771.65c3.93-4.84,10.1-8,16.44-6.48,3.24.78,6.14,2.8,8.12,5.46.74.99,1.3,2.09,1.74,3.23.32.71.54,1.45.68,2.21.94,1.05.8,1.46-.43,1.24-1,.63-3.6.23-4.89.32-1.95.13-3.91.25-5.86.38-3.48.23-7.17.82-10.64.43-2.02-.23-3.93-.71-5.44-2.17-1.92-1.86-1.27-2.53.32-4.11,2.53-2.52,6.06-3.46,9.53-3.41-.26-1.94-.53-3.88-.79-5.82-5.81,2.23-11.43,4.6-15.83,9.15-2.49,2.57.64,5.94,3.59,4.66,4.34-1.88,8.13-4.44,11.58-7.66-1.65-.96-3.3-1.92-4.96-2.88-.55,2.02-1.38,3.15-2.96,4.45-1.78,1.46-.68,4.4,1.31,4.96,5.29,1.48,11.61-4.01,15.98-6.39-1.2-1.55-2.4-3.1-3.59-4.66-2.26,2.46-4.7,4.5-7.55,6.25-3.24,1.99-.29,7.09,2.99,5.12,2.72-1.64,5.44-3.27,8.17-4.91l-3.59-4.66c-1.86,2.32-3.73,4.64-5.59,6.95-1.74,2.16-.2,5.84,2.88,4.96,4.37-1.26,9.77.28,13.6-2.16-1.49-.85-2.97-1.71-4.46-2.56-.03.65-.06,1.31-.09,1.96-.25,1.8.72,3.83,2.86,3.75l-.16-.27c.15-1.2.31-2.4.46-3.59l-.5.48,2.88-.76h0c.25.97.51,1.93.76,2.89.25-1.71,1.53-2.82,1.8-4.57.34-2.24-1.27-4.19-3.65-3.65-1.36.31-2.72.62-4.07.93.96,1.65,1.92,3.3,2.88,4.96,2.01-2.13,3.32-4.3,4.41-7s-2.3-4.36-4.36-3.35c-2.86,1.41-5.18,3.21-7.25,5.63-2.47,2.89,1.33,6.77,4.19,4.19,2.4-2.16,4.37-4.53,6.12-7.24,1.73-2.68-1.57-5.25-4.06-4.06-3.18,1.53-5.46,3.75-7.16,6.84-1.59,2.88,2.28,6.11,4.66,3.59,2.41-2.56,5.26-6.59,3.98-10.34-.94-2.75-3.97-3.97-6.45-2.33-2.77,1.84-2.79,5.56-1.81,8.36.21.59,1.74,3.51,1.12,4.25-.19.23-3.93-1.19-4.27-1.29-2.86-.81-5.75-1.56-8.67-2.11-2.93-.55-6.09-.61-7.4,2.65-1.31,3.24.94,6.42,3.9,7.6,2.83,1.14,7.87,1.5,9.2-2,1.05-2.75-1.14-5.38-3.89-5.27-2.29.09-4.26,3.37-2.1,5.06,2.18,1.71,4.1,2.75,6.9,3.17-.44-1.65-.87-3.3-1.31-4.96-1.95,1.8-4.21,1.55-6.55.85-.68-.2-3.25-.85-3.55-1.45-.74-1.51,1.53-3.12,2.27-3.64,5.15-3.61,10.67-5.85,16.86-6.86,2.85-.47,2.81-5.22,0-5.72-3.45-.61-6.53-.58-9.96.19l1.58,5.72c2.38-.86,3.86-1.98,5.22-4.12,1.24-1.96-.4-4.41-2.56-4.46-9.37-.24-21.49,5.12-24.14,15.03-3.11,11.62,11.18,14.54,19.33,14.99,7.58.42,27.29,2.82,24.26-10.16-2.27-9.7-10.77-20.15-21.44-19.37-3.76.28-3.86,6.03,0,5.93,2.55-.06,4.51.33,6.81,1.54,3.37,1.78,6.37-3.34,2.99-5.12-3.2-1.69-6.17-2.44-9.81-2.35v5.93c7.36-.54,11.3,5.42,14.29,11.3,1.04,2.04,2.53,4.39-.3,6-1.27.72-3.89.45-5.3.5-3.51.12-7.03.09-10.55-.07-5.97-.28-19.78-2.07-12.55-11.06,3.99-4.97,10.16-7.31,16.4-7.16-.85-1.49-1.71-2.97-2.56-4.46l-1.68,1.4c-3.57,1.28-2.19,6.57,1.58,5.72,2.47-.56,4.31-.64,6.81-.19v-5.72c-8.1,1.33-22.42,5.76-23.83,15.35-.62,4.2,3.3,6.24,6.64,7.48,4.95,1.83,9.89,1.92,13.92-1.8,1.51-1.4.91-4.62-1.31-4.96-1.58-.07-3.01-.62-4.28-1.64-.7,1.69-1.4,3.37-2.1,5.06l.7-.03-2.56-1.47c.41-2.56-.39-3.19-2.4-1.88,1.17.23,2.33.48,3.49.74,1.74.4,3.47.83,5.2,1.3,2.81.77,6.21,2.62,9.16,1.71,2.23-.69,3.61-2.75,3.92-5,.2-1.44-.08-2.68-.55-4.04-.31-.75-.64-1.49-1-2.22-2.74-1.67-4.69-1.26-5.85,1.23,1.55,1.2,3.1,2.4,4.66,3.59,1.24-2.24,2.73-3.6,5.03-4.71-1.35-1.35-2.7-2.7-4.06-4.06-1.48,2.3-3.17,4.22-5.19,6.04l4.19,4.19c1.75-2.05,3.64-3.52,6.05-4.7-1.45-1.12-2.9-2.23-4.36-3.35-.69,1.71-1.64,3.06-2.89,4.39-2.06,2.19,0,5.62,2.88,4.96,1.36-.31,2.72-.62,4.07-.93l-3.65-3.65c-.43,2.82-3.46,4.98-.78,7.76,1.7,1.76,4.06,1.6,5.74-.04.88-.86,1.2-2.53.46-3.59-1.29-1.86-2.64-2.76-4.96-2.67l2.86,3.75c.17-1.26.29-2.27.3-3.54.01-2.19-2.55-3.78-4.46-2.56-1.53.98-4.15.22-5.92.35-2.15.15-4.21.62-6.27,1.21.96,1.65,1.92,3.3,2.88,4.96,1.86-2.32,3.73-4.64,5.59-6.95,1.98-2.46-.49-6.52-3.59-4.66-2.72,1.64-5.44,3.27-8.17,4.91,1,1.71,2,3.41,2.99,5.12,3.27-2.01,6.15-4.35,8.75-7.18,2.27-2.47-.58-6.29-3.59-4.66-1.91,1.04-9.23,6.41-11.41,5.79.44,1.65.87,3.3,1.31,4.96,2.35-1.93,3.7-4.14,4.49-7.07.79-2.92-2.82-4.88-4.96-2.88-3.13,2.93-6.46,5.04-10.37,6.73,1.2,1.55,2.4,3.1,3.59,4.66,3.68-3.8,8.36-5.76,13.21-7.63,3-1.15,2.75-5.77-.79-5.82-7.44-.11-22.04,6.74-15.5,15.92,3.33,4.67,8.73,5.85,14.15,5.68,3.83-.12,7.67-.49,11.5-.74,3.02-.2,6.66.18,9.55-.73,10.02-3.14-.65-17.95-5.56-21.07-9.21-5.85-21.29-2.59-27.9,5.56-2.39,2.94,1.78,7.16,4.19,4.19h0Z"/>
        <path class="cls-32" d="M1476.33,886.37c4.14-8.87,13.82-13.16,22.94-15.14,4.55-.99,9.3-1.32,13.94-.78,4.52.52,11.39,2.07,14.65,5.59,2.69,2.9-1.48,2.86-3.84,2.95-2.78.1-5.56-.16-8.33-.25-4.62-.14-9.23.13-13.8.82-10.02,1.49-19.53,5.03-28.23,10.18l4.46,2.56c-.11-2.24-.22-4.49-.33-6.73-.14-2.94-3.92-4.03-5.53-1.5-.82,1.3-1.1,1.97-1.61,3.43,1.94.26,3.88.53,5.82.79.05-.77.09-1.55.14-2.32.2-3.31-5.13-4.07-5.82-.79-.37,1.74-.74,3.48-1.11,5.22-.7,3.29,3.55,5.15,5.42,2.28,1.9-2.92,1.87-6.43,3.54-9.44,2.17-3.91,5.97-5.96,10.28-6.57-.96-1.65-1.92-3.3-2.88-4.96-4.11,3.22-8.21,6.44-12.32,9.65-2.73,2.14.75,6.21,3.59,4.66,2.32-1.27,4.68-2.45,7.08-3.56-1.45-1.12-2.9-2.23-4.36-3.35-.32,1.92-.75,3.46-1.5,5.26-.95,2.3,2.36,4.87,4.36,3.35,6.13-4.67,12.28-9.18,20.06-10.44l-2.28-5.42c-5.37,3.31-11.03,5.41-17.24,6.49l1.58,5.72c1.84-.36,3.68-.72,5.53-1.09-.96-1.65-1.92-3.3-2.88-4.96-2.7,2.87-5.7,4.39-9.58,5.02.96,1.65,1.92,3.3,2.88,4.96,6.69-6.9,16.29-7.94,25.44-7.48,4.96.25,9.89.94,14.84,1.25,3.03.19,6.35.73,8.5-1.83,1-1.19,1.26-3.03,0-4.19-5.34-4.94-12.53-5.01-19.41-4.4-8.55.76-16.68,2.99-24.54,6.4-2.76,1.19-1.28,5.62,1.5,5.53,4.73-.16,8.47-2.18,12.36-4.73,5.69-3.73,10.32-4.99,17.15-4.49,3.3.24,4.08-5.2.79-5.82-9.38-1.77-18.4-.63-27.07,3.37-3.19,1.47-.84,6.08,2.28,5.42,3.51-.74,6.35-2.29,9.01-4.69,2.24-2.02-.12-5.74-2.88-4.96-7.13,2.02-13.92,5.08-19.96,9.41-4.2,3.01-10.79,7.34-9.79,13.39.99,5.96,6.99,5.91,11.14,3.3,7.72-4.87,15.01-8.3,24.25-9.08,3.28-.28,4.09-4.76.79-5.82-1.62-.52-2.48-.65-4.17-.85.5,1.84,1,3.68,1.5,5.53,1.88-1.11,3.76-2.21,5.65-3.32,3.29-1.93.31-7.06-2.99-5.12-1.88,1.11-3.76,2.21-5.65,3.32-2.75,1.62-1.25,5.19,1.5,5.53.87.21,1.73.43,2.6.64.26-1.94.53-3.88.79-5.82-4.77.4-9.45,1.25-13.96,2.87-2.35.85-4.67,1.86-6.88,3.02-1.88.99-4.46,3.54-6.4,4-3.94.93.08-2.8,1.35-3.87,2.11-1.79,4.37-3.4,6.73-4.85,4.73-2.91,9.78-5.03,15.12-6.54-.96-1.65-1.92-3.3-2.88-4.96-1.94,1.75-3.85,2.62-6.39,3.16.76,1.81,1.52,3.61,2.28,5.42,7.11-3.29,14.8-4.22,22.5-2.77.26-1.94.53-3.88.79-5.82-5.38-.39-10.32-.26-15.2,2.25s-8.76,6.78-14.31,6.97l1.5,5.53c6.15-2.66,12.65-4.51,19.3-5.34,5.54-.69,12.99-1.73,17.46,2.41v-4.19c-1.4,1.67-11.43-.54-13.58-.73-4.97-.45-9.97-.8-14.94-.27-7.65.82-14.83,3.45-20.26,9.06-2.21,2.28.09,5.41,2.88,4.96,4.83-.78,8.85-2.99,12.19-6.54,2.11-2.24-.02-5.52-2.88-4.96-1.84.36-3.68.72-5.53,1.09-3.77.74-2.14,6.36,1.58,5.72,6.69-1.16,12.87-3.52,18.65-7.08,3.01-1.85.93-5.94-2.28-5.42-8.28,1.34-14.95,6.06-21.48,11.03,1.45,1.12,2.9,2.23,4.36,3.35.75-1.8,1.18-3.34,1.5-5.26.43-2.65-1.91-4.47-4.36-3.35-2.41,1.1-4.76,2.29-7.08,3.56,1.2,1.55,2.4,3.1,3.59,4.66,4.11-3.22,8.21-6.44,12.32-9.65,2.65-2.07-.39-5.31-2.88-4.96-4.57.64-8.71,2.83-11.73,6.36-3.25,3.78-3.08,8.46-5.63,12.38,1.81.76,3.61,1.52,5.42,2.28.37-1.74.74-3.48,1.11-5.22-1.94-.26-3.88-.53-5.82-.79-.05.77-.09,1.55-.14,2.32-.21,3.49,4.79,3.81,5.82.79.34-.67.67-1.34,1.01-2.01-1.84-.5-3.68-1-5.53-1.5.11,2.24.22,4.49.33,6.73.11,2.2,2.45,3.75,4.46,2.56,12.91-7.65,26.91-10.67,41.82-10.07,4.68.19,12.35,1.25,15.58-3.19,2.76-3.8.17-8.08-3.04-10.58-16.52-12.87-50.6-7.35-59.8,12.36-1.6,3.44,3.51,6.45,5.12,2.99h0Z"/>
        <path class="cls-32" d="M1540.99,815.13c-3.82,1.61-6.91,4.55-5.85,9.09,1.11,4.77,5.92,6.79,10.13,8.07,5.53,1.68,11.42,2.28,17.18,2.27,4.06,0,10.07.14,11.71-4.58,1.25-3.62-1.88-6.64-3.68-9.42-2.49-3.86-7.41-4.83-11.73-5.86-6.42-1.53-23.47-4.28-23.11,6.93.16,4.9,4.6,5.5,8.55,6.02,6.09.8,12.23.73,18.3-.18,2.88-.43,7.75-1.06,7.36-5.11-.41-4.22-7.38-5.44-10.68-5.91-4-.57-9.71-.43-13.25,1.83-2.91,1.86-4.09,6.14-.65,8.18,6.23,3.71,17.92-4.79,9.74-9.94-6.38-4.02-23.66,4.55-14.72,11.04,2.3,1.67,5.77,1.98,8.44,2.61,2.85.67,5.7,1.32,8.61,1.68,4.72.57,11.78.74,15.27-3.17.94-1.06,1.07-2.34.46-3.59-2.81-5.86-14.51-5.15-19.66-5.24-3.82-.07-3.82,5.86,0,5.93,2.66.05,13.19-.52,14.54,2.3.15-1.2.31-2.4.46-3.59-3.19,3.58-11.51,1.45-15.45.58-.93-.2-7.78-1.2-7.95-1.92-.38-1.63,5.39-1.39,5.67-2.04-.78.08-1.57.17-2.35.25.99,1.28,2.1,1.69,3.34,1.22,1.36.02,2.8-.44,4.2-.43s2.82.19,4.2.5c2.02.45,1.76.94,3.47-.41,2.92-2.31-2.58-.46-3.68-.33-1.23.15-2.47.25-3.71.32-2.79.15-5.6.13-8.38-.1-1.22-.1-3.74.1-4.76-.58-1.34.02-1.27-.37.21-1.17.51-.86,1.23-1.23,2.16-1.11,2.53-.63,5.98.09,8.46.51,4.68.78,9.19,1.67,12.17,5.35,1.48,1.83,1.95,2.75-.77,3.48-2.35.63-5.87.06-8.31-.14-2.79-.23-5.58-.66-8.29-1.36-1.11-.29-3.56-.69-4.51-1.48-1.39-1.16-2.37-4.39-.12-5.33,3.5-1.48.48-6.59-2.99-5.12h0Z"/>
        <path class="cls-32" d="M1320.42,992.22c1.28,5.22-1.36,10.21-6.49,11.91-3.61,1.19-2.06,6.92,1.58,5.72,8.22-2.72,12.71-10.76,10.63-19.2-.91-3.7-6.63-2.14-5.72,1.58h0Z"/>
        <path class="cls-32" d="M1333.71,994.36c.06.14.28,1.17.23.61.01.19.01.39,0,.58.06-.31.05-.28-.02.07-.05.19-.1.37-.17.55.1-.27.08-.24-.08.07-.19.29-.21.32-.05.09-.26.23-.27.27-.05.11-1.27.98-1.94,2.55-1.06,4.06.73,1.25,2.78,2.05,4.06,1.06,2.65-2.04,4.17-5.51,2.86-8.79-.59-1.49-1.98-2.53-3.65-2.07-1.42.39-2.66,2.15-2.07,3.65h0Z"/>
        <path class="cls-32" d="M1326.9,1012.35c-.26.22-.28.24-.04.06-.15.11-.3.21-.46.3-.24.14-.48.28-.73.39.54-.23-.28.07-.33.08-.13.04-1.21.2-.57.14-1.54.15-3.04,1.26-2.96,2.96.07,1.48,1.31,3.13,2.96,2.96,2.42-.24,4.49-1.09,6.33-2.7,1.17-1.02,1.13-3.16,0-4.19-1.25-1.15-2.94-1.09-4.19,0h0Z"/>
        <path class="cls-32" d="M669.28,920.61c-10.46,2.68-21.76,14.36-16.88,25.95,4.98,11.82,22.62,9.47,30.49,2.39,4.61-4.15,7.9-10.68,7.68-16.98-.22-6.2-5.48-8.24-10.76-9.21-6.25-1.15-14.64-2.24-20.2,1.64-4.37,3.05-7.51,10.22-6.15,15.44,3.16,12.17,19.85,8.02,25.66.69,2.75-3.48,5.41-10.01,2.76-14.26s-9.65-2.67-13.5-1.15c-4.78,1.89-10.92,6.31-12.08,11.7-1.06,4.88,3.2,7.6,7.58,6.86,5.31-.89,9.93-5.18,11.7-10.2,1.28-3.63,1.6-10.52-3.95-10.37-4.77.13-10.51,6.83-11.33,11.26-1.01,5.5,4.67,9,9.03,5.57,3.49-2.74,6.14-11.13,1.9-14.37-5.45-4.17-9.23,4.38-9.46,8.47-.12,2.12,2.66,3.86,4.46,2.56,2.72-1.96,5.06-6.31.83-8.19-3.72-1.65-6.88,2.27-7.02,5.77-.16,4.05,3.53,6.15,7.12,4.58,5.13-2.25,4.94-8.48,4.2-13.06-.17-1.04-1.16-1.74-2.07-2.07-6.26-2.26-6.59,9.42.56,7.1,2.35-.76,5.31-4.37,5.37-6.91.06-2.75-2.66-4.54-5.13-3.76-1.46.46-2.6,2.08-2.07,3.65,1.06,3.11,2.98,3.12,5.86,3.88,2.53.67,5.22,2.02,6.06,4.77.8,2.59-.52,5.37-3.13,6.22,1.22,1.22,2.43,2.43,3.65,3.65.41-1.92.86-3.81,1.37-5.71-1.94-.26-3.88-.53-5.82-.79.44,3.8-3.31,5.33-6.22,6.56-.71.3-6.84,2.16-6.31,3.14v2.99c3.09-4.64,7.31,1.95,10.36,2.2,3.48.28,5.14-4.41,6.23-6.96,1.3-3.03,3.65-8.19,1.49-11.38s-5.89-2.23-8.79-.95c1.35,1.35,2.7,2.7,4.06,4.06l1.87-1.94c-1.45-1.12-2.9-2.23-4.36-3.35-2.06,4.92-5.2,9.06-9.18,12.58-2.87,2.54,1.33,6.69,4.19,4.19,1.68-1.47,3.23-2.54,5.13-3.65l-4.46-2.56c-.06,2.67-.44,5.13-1.16,7.69h5.72c-.45-2.78-1.8-4.5-4.17-5.97-3.26-2.01-6.24,3.12-2.99,5.12l1.44,2.42c.49,3.02,4.98,2.62,5.72,0,.87-3.07,1.31-6.08,1.37-9.27.05-2.27-2.55-3.67-4.46-2.56-2.29,1.33-4.35,2.84-6.33,4.58l4.19,4.19c4.81-4.26,8.24-9.29,10.71-15.2,1.04-2.47-2.32-4.58-4.36-3.35-1.81,1.09-2.95,2.23-4,4.06-1.59,2.78,1.48,5.19,4.06,4.06.68-.3-.86,4.33-.79,4.14-.65,1.63-1.48,3.86-2.84,5.01l2.88-.76c.79.26-2.12-1.92-2.75-2.24-1.63-.85-3.42-1.29-5.25-1.33-3.46-.08-6.73,1.25-8.66,4.15-.59.89-.49,2.09,0,2.99,2.67,4.94,10.13.82,13.72-.7,5.21-2.21,10.61-5.56,9.86-12-.36-3.12-4.89-4.26-5.82-.79-.51,1.9-.96,3.79-1.37,5.71-.44,2.09,1.37,4.39,3.65,3.65,5.17-1.69,8.54-6.8,7.54-12.3-.5-2.76-2.04-5.17-4.14-6.99-.7-.61-8.47-4.12-8.05-2.88-.69,1.22-1.38,2.43-2.07,3.65,5.9-1.85-6.01-3.15-2.94-.82l1.47,2.56-.22.84-2.88.76.62.22-2.07-2.07c.05.31,1.15,7.36-.15,6.85l-2.07-2.07-.18-.58,4.46,2.56c.05-.88-.17-6.17-.67-1.11-.26,2.64.22.33,1.54-1.19l.95-1.04c1.67-.49,2-1.21,1.01-2.17.08,1.56-.56,3.26-1.32,4.57s-7.31,6.93-6.53,3.78c.78-3.14,6.28-5.85,9.05-6.71,3.08-.96,5.65-1.92,4.93,1.92-.61,3.25-2.8,6.09-5.62,7.79-2.63,1.59-6.95,2.84-9.81.98-4.3-2.79-1.12-9.53,2.19-11.67,3.06-1.98,7.47-1.56,10.99-1.25,2.51.22,7.95.43,9.63,2.68,1.83,2.45-.55,7.72-1.95,10.03-2.01,3.29-5.07,5.84-8.7,7.17-5.97,2.19-16.56,1.37-16.12-7.13.38-7.31,6.95-12.69,13.54-14.38,3.69-.95,2.13-6.67-1.58-5.72h0Z"/>
        <path class="cls-45" d="M490.48,1019c5.5-4.71,10.37-9.56,17.01-12.7s13.34-4.54,20.32-4.52c3.12,0,8.37-.65,9.79,2.83,1.15,2.81.41,7.63-1.65,9.81-2.31,2.44-7.19,3.18-10.3,4.03-4.07,1.11-8.19,2.03-12.43,2.03-7.05,0-13.28-3.62-20.21-4.3-4.22-.42-8.52,1.6-6.55,6.64,1.59,4.07,7.54,5.34,11.34,5.75,6.15.66,12.2-1.01,17.24-4.53,1.74-1.21,2.09-3.98,0-5.12-6.4-3.48-13.35-4.46-20.53-4.84-4.73-.25-10.18-.24-10.94,5.51-.14,1.09.7,1.97,1.47,2.56l.42.67c.97,2.72,4.82,2.91,5.72,0,.71-2.32,1.25-4.62,1.64-7.02.41-2.53-1.92-4.63-4.36-3.35-1.53.8-2.48,1.77-3.39,3.22,1.81.76,3.61,1.52,5.42,2.28l.42-.86c2.29-2.3-.85-6.76-3.59-4.66l-1.47,1.12c1.35,1.35,2.7,2.7,4.06,4.06,3.38-5.84,9.64-8.63,15.8-10.68,6.84-2.28,14.4-3.88,21.64-3.59,4.37.18,9.54,3.2,4.68,7.1-2.33,1.86-6.85,2.57-9.71,3.44-6.79,2.05-13.72,3.51-20.74,4.5-1.18.17-2.28,1.69-2.18,2.86.56,6.03,7.58,4.79,11.88,3.71,6.4-1.61,12.05-5.27,16.37-10.21,2.08-2.38,0-5.35-2.88-4.96-7.37,1.01-14.28,3.25-20.9,6.62-2.82,1.43-1.21,5.32,1.5,5.53,5.78.43,11.46-.41,16.82-2.68,3.45-1.46,8.88-3.95,10.13-7.94,3.03-9.72-11.49-7.4-14.68-1.77-1.65,2.92.07,5.74,3.2,6.48,3.99.95,9.63-1.38,12.68-3.84,2.62-2.11,4.11-6.01,1.01-8.46-3.52-2.78-8.59,1-11.18,3.42-2.59,2.43.7,6.03,3.59,4.66,4.36-2.07,3.89-8.09-.49-9.86-5.79-2.33-11.43,4.02-15.48,7.17-1.76,1.37-.71,4.51,1.31,4.96,6.24,1.37,12.1-1.98,13.95-8.13.6-2.01-1.51-4.48-3.65-3.65-5.41,2.11-10.36,4.8-14.97,8.34-2.41,1.85-1.2,6.62,2.28,5.42,3.59-1.23,14.93-7.95,9.9-13.09-4.7-4.82-14.95,5.48-18.07,8.52-2.57,2.51.68,5.95,3.59,4.66,3.17-1.41,5.44-3.59,7.06-6.65,1.18-2.22-.78-5.1-3.35-4.36-4.11,1.2-7.56,3.18-10.68,6.1l5.06,2.1c.58-5.47-5.42-8.8-10.01-6.03-1.82,1.1-3.61,3.34-3.64,5.58-.03,2.59,1.87,3.41,3.64,4.72l-1.47-2.56.02.55c.06,1.53,1.31,3.07,2.96,2.96,3.57-.22,6.38-2.2,6.89-5.92.33-2.43-1.9-4.77-4.36-3.35-1.03.6-2.02,1.21-2.95,1.97-.76.62-2.1,2.59-2.9,3-1.03.54-2.6.05-3.82.51-3.84,1.48-4.99,6.04-3.04,9.46,5.33,9.32,23.44,3.64,31.01.92,2.97-1.07,2.76-5.99-.79-5.82-2.3.1-4.6.21-6.89.31-3.8.17-3.82,6.1,0,5.93,2.3-.1,4.6-.21,6.89-.31l-.79-5.82c-3.4,1.22-6.84,2.22-10.4,2.84-2.85.49-8.97,1.95-11.69.48l-1.62-2.29c.55.08,1.1.15,1.66.2.76-.39,1.59-.36,2.39-.9,2.23-1.52,3.43-3.92,5.92-5.36-1.45-1.12-2.9-2.23-4.36-3.35l-1.17,1.56,2.96,2.96c-.04-.95-.4-1.51-.66-2.35-.21-.32-.49-.58-.83-.76-1.11-.83-.74-.55,1.1.84-.29,2.71,3.35,3.7,5.06,2.1,2.4-2.24,4.93-3.66,8.07-4.57-1.12-1.45-2.23-2.9-3.35-4.36-1.18,2.23-2.63,3.5-4.93,4.52l3.59,4.66c1.77-1.72,3.57-3.33,5.6-4.75.87-.61,4.26-3.42,5.39-3.01l-2.07-2.07c-.24-1.34-1.48,1.46-2.21,2.09-1.34,1.17-2.58,1.81-4.31,2.4l2.28,5.42c4.18-3.21,8.64-5.83,13.56-7.74-1.22-1.22-2.43-2.43-3.65-3.65-.88,2.95-3.64,4.65-6.65,3.99l1.31,4.96c1.44-1.12,2.88-2.24,4.33-3.36.68-.52,1.37-1.04,2.05-1.56,1.58.03,2.38-.54,2.41-1.71l3.59,4.66c1.92-.53,2.41-1.3,1.47-2.28-.25-.91-.76-.98-1.52-.19-.52.05-4.6,1.03-4.92,1.38-1.27,1.37,5.31.38,3.37.17-.42-.05-2.62,1.66-3.12,1.94-5.37,3.07-11.35,4.1-17.46,3.65l1.5,5.53c6.18-3.14,12.63-5.08,19.48-6.02l-2.88-4.96c-2.35,2.69-4.96,4.92-8.15,6.57-2.32,1.2-8.82,4.13-11.37,2.46l1.47,2.56-.08-.88-2.18,2.86c10.4-1.48,21.7-3.63,31.23-8.25,6.88-3.34,8.2-11.76,1.45-16.21-7.48-4.93-20.22-1.72-28.13.48-8.82,2.45-18.13,6.22-22.92,14.5-1.37,2.37,1.59,5.95,4.06,4.06l1.47-1.12-3.59-4.66c-1.2,1.2-1.58,1.82-1.95,3.48-.72,3.26,3.6,5.2,5.42,2.28l1.26-1.09c-1.45-1.12-2.9-2.23-4.36-3.35-.39,2.4-.93,4.7-1.64,7.02h5.72c-.68-1.91-1.54-2.99-3.15-4.21l1.47,2.56c-.03.2,8.93.67,9.99.79,4.42.48,8.63,1.53,12.56,3.67v-5.12c-3.38,2.35-7.05,3.83-11.22,3.87-1.75.02-3.51-.18-5.21-.63-1.1-.28-2.16-.68-3.17-1.2l-1.04,1.02c.95.76,5.68,1.03,7.12,1.45,1.58.46,3.13,1,4.71,1.44,2.98.84,5.99,1.44,9.1,1.54,7.21.22,14.76-1.86,21.51-4.21,5.41-1.89,8.9-5.38,9.82-11.17.72-4.54.28-11.16-4.33-13.51-5-2.55-12.77-1.9-18.12-1.24-6.33.79-12.44,2.68-18.11,5.59-6.48,3.34-11.34,8.25-16.81,12.94-2.9,2.49,1.31,6.66,4.19,4.19h0Z"/>
        <path class="cls-32" d="M287.14,829.54c-5.36,2.45-12.29,8-8.32,14.71,3.47,5.86,12.43,3.12,17.63,1.93,6.57-1.49,15.4-4.41,18.99-10.68,3.86-6.74-3.42-9.66-8.9-10.16-7.57-.69-17.06.74-22.59,6.42-3.92,4.02-6.14,11.87-1.24,16.07,7.99,6.84,33.81-4.82,26.99-16.32-3.25-5.49-11.46-4.45-16.47-2.66-4.56,1.62-12.73,6.01-10.72,12.06,1.97,5.93,10.5,4.69,15.06,3.37,5.68-1.65,13.94-5.98,14.63-12.67,1.39-13.5-27.34-5.84-28.87,4.62-2.11,14.41,26.55,6.57,25.79-6-.51-8.3-10.4-6.29-15.28-3.49-4.25,2.43-10.33,10.19-3.38,13.48,4.82,2.28,15.51-1.14,14.68-7.76-.99-7.91-12.59-1.26-15.35,1.65-1.51,1.6-.9,4.37,1.31,4.96,3.49.93,7.31.72,10.17-1.7,2.45-2.06,3.39-5.81.8-8.24-4.07-3.83-13.87,1.07-10.83,6.69,3.22,5.97,15.38,2.39,19.02-1.31,6.15-6.26-1.42-12.69-8.04-12.56-7.05.14-17.37,4.02-19.29,11.69-2.07,8.29,7.44,10.79,13.74,9.86,6.67-.99,15.43-6.03,16.91-13.25,1.85-8.99-10.21-8.84-15.76-8.01-7.21,1.08-15.8,5.47-16.83,13.59s9.32,8.45,14.92,6.64c5.02-1.62,13.37-8.63,8.36-14.42-4.91-5.68-16.13-.43-20.27,3.68-1.96,1.94-3.74,4.9-2.1,7.65,1.83,3.07,6.19,2.64,9.16,2.05,6.11-1.22,16.49-7.21,13.84-14.92-2.94-8.55-14.71-2.13-19.94.47-4.04,2-18.17,8.88-12.26,15.41,2.21,2.44,6.98,2.48,9.95,2.3,4.47-.26,8.9-1.7,12.61-4.22,5.13-3.49,10.86-11.72,4.45-16.98-6.29-5.16-15.86.88-20.16,5.95-3.28,3.87-8.17,14,.71,14.47,6.01.32,14.53-5.42,16.59-10.96,2.6-7.01-3.63-10.26-9.65-7.89-4.32,1.7-16.47,9.1-11.75,15.09,4.86,6.18,14.37-4.59,15.8-9.02.81-2.51.92-5.32-1.66-6.72-3.15-1.7-7.51.74-10.14,2.48-6.73,4.43-13.64,12.44-11.46,21.1s11.39,9.47,19.05,8.47c9.63-1.25,19.41-3.54,27.15-9.72,6.12-4.89,12.23-12.88,6.67-20.36-5.4-7.26-15.22-7.6-23.32-5.98-7.85,1.57-16.05,5.03-21.06,11.52-1.9,2.46-4.55,6.36-3.06,9.6,1.43,3.09,4.74,2.78,7.57,1.99,5.59-1.57,18.18-8.25,16.91-15.59-1.44-8.35-13.35-.97-16.15,2.26-1.87,2.16-4.18,5.68-3.7,8.69s3.31,4.29,6.13,3.48c6.42-1.84,5.91-10.78-1.36-9.37-6.92,1.34-13.96,9.28-11.35,16.5,3.03,8.36,13.34,6.03,19.84,4.15,8.57-2.48,18.15-6.45,24.71-12.69,5.06-4.81,2.41-14-5.31-11.22-4.78,1.72-9.25,5.53-13.72,7.99-5.15,2.84-11.89,7.52-18,6.67l2.07,3.65c.25-1.47.51-2.93.76-4.4h-5.72c.27.91.53,1.81.8,2.72.81,2.79,4.93,2.86,5.72,0,1.69-1.59,3.57-2.17,5.64-1.74,3.81.25,3.79-5.68,0-5.93-5-.33-9.88.72-11.36,6.1h5.72c-.27-.91-.53-1.81-.8-2.72-.77-2.62-5.19-3.02-5.72,0-.25,1.47-.51,2.93-.76,4.4s.37,3.41,2.07,3.65c9.03,1.26,17.48-4.35,25.04-8.66,2.46-1.41,4.89-2.88,7.29-4.38.26-.16,2.45-1.85,2.73-1.7.6.31-2.48,2.8-2.59,2.88-3.9,2.85-8.22,5.2-12.68,7.05-4.14,1.71-8.57,3.22-12.99,3.98-2.99.52-6.79.54-7.23-3.15s3.54-4.75,5.67-6.7c1.87-1.71,2.41-4.27,4.24-6.08.81-.8,1.76-1.51,2.76-2.06l1.86-.83-.53-.27c-1.09,3.1-10.63,9.06-13.92,7.68l2.07,2.07c-1.19-3.77,6.54-8.74,9.02-10.08,4.79-2.59,10.68-4.24,16.12-4.41,6-.18,15.53,2.99,11.65,10.71-2.39,4.77-8,8.21-12.7,10.27-6.28,2.74-33.27,10.58-29.39-4.07,1.18-4.46,7.28-11.31,12.04-12.17l-.34-.63c-.34.97-.85,1.83-1.52,2.6-.6.79-3.06,2.3-3.31,2.88-.82,1.95,2.97-.72,2.03-.17,1.6-.94,2.9-2.38,4.57-3.3.09-.05,2.94-1.65,3.23-1.44,1.47,1.06-.16,2.38-.88,3.12-1.48,1.51-3.49,2.55-5.4,3.43-2.3,1.06-3.57,1.61-1.75-1.28,1.68-2.69,4.02-4.89,6.82-6.38,2.06-1.09,7.66-3.33,7.08,1.58-.29,2.45-4.21,4.91-6.04,5.9-2.37,1.28-5.02,2.08-7.71,2.26-.96.06-2,.07-2.97-.02-4.44-.41-.42-1.47,1.16-2.49,4.43-2.86,8.99-5.31,14-7,1.49-.5,2.72-1.59,3.6-.09.95,1.62-1.28,2.95-2.49,3.83-1.43,1.04-6.76,4.04-8.82,2.92,1.23.67,4.21-2.38,6.09-3.11,2.22-.86,7.9-2.02,4.83,1.77-1.47,1.81-4.47,2.55-6.61,2.8-4.14.5-5.86-.61-2.78-4.45,3.08-3.84,11.56-6.65,16.36-5.21,3.94,1.18,1.27,4.32-1.07,6.28s-5.39,3.28-8.49,3.67c-1.01.13-3.57.54-4.38-.08-3.12-2.38-1.44-4.77,1.06-6.47,2.31-1.57,5.04-2.6,7.8-3.04.5-.08,4.15-.56,4.81,0,3.19,2.69-1.33,3.8-2.83,4.2-1.3.35-3.32.87-4.38,1.14-.52.91-.69.83-.51-.25-1.45.68-2.91.74-4.38.18l1.31,4.96c1.16-1.23,3.42-1.91,4.35-3.07,1.69-.02,1.81-.6.39-1.75l-1.92.99c-6.47,2.26.57-4.35,3.31-3.98,6.28.84-4.23,6.77-5.56,7.17-2.57.76-5.7.03-3.41-3.02,1-1.33,3.47-2.09,4.96-2.66,2.32-.89,12.53-3.55,8.43,1.85-2.09,2.74-6.87,4.43-10.1,5.12-1.03.22-4.66,1.14-5.46.34-1.2-1.2,1.03-2.16,2.36-2.99,2.69-1.69,6.64-3.3,9.91-2.98,5.94.58,1.69,5.19-1.25,7.13-2.83,1.86-6.69,3.51-10.16,3.34-6.43-.32-3.46-6.88.14-9.36,3.21-2.21,7.64-3.02,11.45-3.26,2.64-.17,10.58-.65,6.94,3.44-2.21,2.48-6.6,3.92-9.64,4.84-3.34,1.02-6.86,1.75-10.32,2.2-.81.16-1.62.24-2.44.24-2.32-.61-2.81-1.63-1.46-3.07.67-2.37,3.65-3.26,5.66-4.18,3.47-1.58.46-6.69-2.99-5.12h0Z"/>
      </g>
      <path class="cls-14" d="M138.98,919.68c-4.84-33.66,9.08-50.27,9.08-50.27,4.67-5.57,7.78-6.01,13.32-13.32,10.25-13.53,9.97-25.7,13.6-37.64,5.51-18.13,17.96-28.96,31.21-40.48,37.41-32.54,89.39-28.31,99.93-27.25,11.1-17.6,47.76-70.77,119.91-98.11,75.56-28.63,141.16-10.39,160.49-4.24,10.77-12.28,51.17-55.39,119.28-65.58,80.97-12.11,139.73,31.47,150.22,39.54,27.88-22.86,48.8-25.6,62.38-24.22,24.18,2.45,30.06,18.43,57.53,20.59,26.31,2.07,29.01-11.95,56.32-12.11,37.27-.22,43,25.82,74.49,23.62,30.45-2.12,34.89-27.15,66.01-26.65,17.87.29,17.62,8.57,47.84,16.96,35.61,9.88,46.94,1.44,68.43,10.9,13.29,5.85,30.2,18.42,44.21,48.45,16.39-4.81,60.37-15.3,110.83,2.42,71.69,25.18,100.87,87.83,105.98,99.32,44.3-1.11,82.43,19.22,96.29,51.48,6.92,16.11,6.38,31.93,4.57,43.03,2.2,2.69,5.23,6.94,7.55,12.68,0,0,5.91,14.64,1.93,33.32-1.41,6.63-32.3,97.92-404.67,153.22-101.64,15.09-265.59,33-476.01,23.62-41.55-1.85-151.02-7.7-290.79-32.78-293.3-52.64-346.57-123.01-349.95-146.48Z"/>
    </g>
    <g>
      <g>
        <g>
          <g>
            <circle class="cls-52" cx="881.85" cy="953.52" r="103.01"/>
            <g class="cls-47">
              <path class="cls-61" d="M976.54,899.69c-9.19,28.48-27.83,70.53-67.83,92.66-57.61,31.88-121.13,1.18-125.97,15.14-5.25,15.15,63.37,69.14,142.41,67.11,19.91-.51,68.68-1.76,90.24-35.13,22.32-34.55,9.17-93.79-38.85-139.78Z"/>
            </g>
            <circle class="cls-23" cx="881.85" cy="953.52" r="103.01"/>
          </g>
          <path class="cls-60" d="M838.98,883.47c-6.97,1.13-13.58,4.73-17.19,10.99-2.46,4.26-4.58,12,.07,15.59,5.42,4.18,12.97-.19,16.72-4.47,3.86-4.41,8.42-11.33,7.08-17.56-1.45-6.7-10.34-4.37-13.63-.77-3.83,4.19-9.47,11.2-7.86,17.42.6,2.32,2.48,3.8,4.92,3.46,3.24-.46,5.65-3.98,7.34-6.51s8.44-12.33,2.64-14.08-10.83,6.13-11.36,10.62c-.79,6.71,5.4,7.97,9.58,3.68,2.88-2.95,6.87-11.15,1.21-13.5-4.92-2.04-10.1,5.9-7.75,10.06,2.72,4.81,10.17.56,10.82-3.77,1.01-6.64-7.08-7.34-11.49-5.61-6.07,2.39-10.02,8.36-9.76,14.91.29,7.34,6.36,8.32,11.57,4.3,4.09-3.15,9.25-12.22,2.93-15.97-6.74-4-11.69,5.91-11.39,11.23.5,8.8,10.52,4.09,14.7.82,3.36-2.64,11.13-12.94,2.48-14.32-3.73-.6-5.34,5.11-1.58,5.72-1.35-.22-3.53,3.25-4.91,4.26s-4.62,3.34-6.48,2.61l2.07,2.07c-.52-1.42-.69-3.87.44-5.02.06-1,.36-1.25.9-.74.86.3.77.9-.27,1.81-1.08,2.44-3.8,4.02-6.3,4.39l2.28.3c-1.66-.96.06-5.67.63-6.71,1.14-2.07,3.16-3.65,5.41-4.34.61-.19,2.09-.14,1.94-.15-.4.52-.04.57,1.07.16,1.52-.06,1.61-.11.28-.12-.79-.32-1.21-.07-1.27.76-.17.56-.45,1.06-.81,1.51-.77,1.15-1.57,2.12-3.09,2.33l2.28.3s1.4-3.05,1.49-3.19c.72-1.04,2.25-2.54,3.58-2.55l-2.56-1.47.2.34-.3-2.28c-.63,2.87-2.69,6.27-4.32,8.68-.25.37-3.9,4.47-1.37,4.41-.76.02,1.6-5.26,1.57-5.2,1.25-2.32,3.92-6.93,6.54-7.73,4.04-1.23.05,6.01-.94,7.57-1.54,2.45-3.42,5.06-5.89,6.64-1.28.82-4.15,2.26-5.5.95-1.17-1.14-.52-3.34-.09-4.83,1.96-6.77,8.43-10.19,14.94-11.24,3.76-.61,2.16-6.32-1.58-5.72h0Z"/>
          <path class="cls-60" d="M855.52,871.91c-1.45,1.94-1.69,5.56-.05,7.41,2.01,2.25,5.07,1.67,6.75-.61,1.56-2.12,1.67-5.46-.85-6.96-2.78-1.65-5.79.77-6.32,3.53-.28,1.46-.14,3.15,1.13,4.12,1.29.98,2.94.88,4.18-.11,1.85-1.46,3-4.31,2.31-6.64-.93-3.18-5.05-3.02-7.15-1.25-1.86,1.56-3.35,4.6-1.75,6.82,1.72,2.38,5.96,1.74,7.33-.69,1.24-2.2,1.8-6.37-1.26-7.32-2.41-.75-5.48.57-6.29,3-.73,2.18-.05,5.08,1.55,6.74,3.79,3.92,9.26-2.14,9.94-5.88.27-1.5-.09-2.98-1.48-3.82-1.02-.62-2.4-.72-3.57-.77-2.65-.12-4.69,1-5.89,3.41-1.27,2.55-1.5,6.23,1.4,7.76s5.83-.63,7.02-3.17c1.26-2.68.7-5.98-2.1-7.43-1.53-.79-3.52-.66-4.75.61-1.16,1.2-1.27,3.02-.92,4.56s2.16,2.48,3.65,2.07c1.61-.44,2.42-2.08,2.07-3.65.07.38-.08.73-.46,1.06l-1.31.76c-.59.1-1.04-.08-1.35-.53-.02-.07-.03-.13-.05-.2-.02-.05,0-.07.03-.08l-.18.33c-.19.34-.25.43-.19.26-.38.33-.31.33.23-.02,1.15.1,1.79.55,1.92,1.37-.03-.38-.03-.5.02-.36-.14.38.37-1.02.27-.69.24-.32.29-.42.16-.29-.12.04-.23.07-.35.1-.37.08-.32.1.17.05.27,0,.54,0,.81.02.17-.06.31-.05.42.05.52.13.53.11.03-.04l-1.36-1.77c.05-.93.02-1.09-.11-.49-.13.35-.15.43-.07.25-.08.2-.49.86-.47.83-.15.17-.31.34-.47.5-.27.24-.34.3-.2.18-.19.13-.38.25-.59.35-.68.29-.38.29.89-.01l1.31.76c-.19-.16-.21-.07-.29-.42.05.2-.1-.58-.08-.54,0-.26,0-.26-.03,0-.12.46-.37.76-.74.89.06-.11.37.11-.16-.03l-1.77-1.36.07.15-.4-1.5c0,.41-.2.82-.18,1.21-.29.82.09.59,1.16-.68-.48,0-.51,0-.08,0l1.31.76-.17-.18.76,1.31c.29.96-.29,1.05.2.46.28-.33.36-.4.24-.21-.59.27-1.15.16-1.69-.35l-.76-1.31c-.07-.36-.14.24-.11.17-.16.48-.4.13.52-.11l2.28.3-.18-.08,1.36,1.77c.31.94-3.44-.17-2.23.76l-1.06-1.06c-.55-.79.52-1.45,1.29-1.14l1.31.76c-.44-.4-.4-.24.14.49-.05-.12-.03-.25.04-.38.04-.22.09-.44.15-.65-.07.21-.02.16.17-.15.96-1.28.21-3.31-1.06-4.06-1.52-.89-3.09-.22-4.06,1.06h0Z"/>
          <circle class="cls-49" cx="835.69" cy="936.79" r="10.75"/>
          <circle class="cls-49" cx="921.09" cy="936.48" r="11.05"/>
          <path class="cls-19" d="M864.2,949.5c3.12,6.34,9.79,10.04,16.5,9.24,5.77-.69,10.76-4.6,13.02-10.14"/>
          <ellipse class="cls-42" cx="822.59" cy="969.44" rx="16.06" ry="22.89" transform="translate(-249.87 1652.31) rotate(-82.17)"/>
          <ellipse class="cls-42" cx="934.65" cy="967.02" rx="22.89" ry="16.06" transform="translate(-287.95 406.71) rotate(-21.35)"/>
        </g>
        <g>
          <path class="cls-36" d="M775.88,1028.48c4.48-12.36,30.9-13.48,46.43-10.97,18.59,3.01,31.54,12.85,37.95,18.57,3.97-3,13.87-9.65,28.26-10.9,16.13-1.4,28.09,4.82,32.3,7.27,1.68-2.87,12.71-21.05,35.93-25.84,15.39-3.17,38.72-1.68,44.01,10.09,6.11,13.6-13.23,37.68-33.36,50.13-10.61,6.56-19.67,8.79-106.59,7.67-32.01-.41-48.22-.94-64.19-12.52-10.67-7.73-24.61-22.83-20.75-33.51Z"/>
          <path class="cls-21" d="M776.13,1021.56c5.66-3,23.39-11.45,46.43-7.67,20.05,3.29,33.03,14.04,37.95,18.57,3.97-3,13.87-9.65,28.26-10.9,16.13-1.4,28.09,4.82,32.3,7.27,1.68-2.87,12.71-21.05,35.93-25.84,23.78-4.91,41.44,8.13,44.01,10.09"/>
        </g>
      </g>
      <g>
        <g>
          <circle class="cls-45" cx="1284.72" cy="856.5" r="103.01"/>
          <g class="cls-30">
            <path class="cls-54" d="M1375.26,802.85c-.06,44.51-25.4,84.65-64.19,101.86-45.51,20.19-101.55,5.29-133.5-37.22-4.29,12.12-11.41,38.1-1.21,64.96,17.63,46.45,75.2,64.4,114.93,61.77,87.73-5.8,157.24-116.55,134.04-162.71-9.26-18.43-32.8-25.55-50.06-28.67Z"/>
          </g>
          <circle class="cls-23" cx="1284.72" cy="856.5" r="103.01"/>
        </g>
        <circle class="cls-49" cx="1245.47" cy="835.69" r="10.75"/>
        <circle class="cls-49" cx="1329.56" cy="850.56" r="11.05"/>
        <path class="cls-19" d="M1271.26,853.27c1.95,6.8,7.86,11.62,14.6,12.02,5.8.35,11.4-2.62,14.62-7.67"/>
        <ellipse class="cls-55" cx="1223.55" cy="861.61" rx="16.06" ry="19.26" transform="translate(25.04 1757.74) rotate(-71.94)"/>
        <ellipse class="cls-55" cx="1337.48" cy="883.02" rx="19.93" ry="16.06" transform="translate(-145.21 274.56) rotate(-11.12)"/>
        <path class="cls-40" d="M1251.55,798.61c1.75-4.92,6.08-8.58,10.85-10.71s10.01-2.92,15.18-3.7c.64-.1,1.31-.19,1.94,0,1.27.37,1.97,1.83,1.86,3.14-.11,1.31-.86,2.49-1.69,3.51-5.23,6.41-13.96,8.52-22.05,10.26-1.15.25-2.39.49-3.48.04-2.13-.87-2.45-4.02-1.13-5.91,1.32-1.89,3.64-2.77,5.86-3.39,3.57-1,7.39-1.6,10.97-.64-3.05,3.64-8.24,5.34-12.85,4.2,3.05-2.99,7.46-4.53,11.71-4.1-1.22,2.29-3.64,3.66-6.06,4.59-2.42.93-4.98,1.55-7.19,2.92-.59-.6-.51-1.63-.04-2.32s1.23-1.13,1.98-1.52c5.46-2.86,11.44-4.69,17.56-5.39.45-.05,1-.04,1.21.35.33.61-.53,1.16-1.21,1.33-1.61.41-3.22.81-4.83,1.22,2.97-2.37,5.95-4.73,8.92-7.1-2.12-1.8-5-2.54-7.79-2.47s-5.5.88-8.09,1.89c-5.88,2.28-11.79,6.11-13.67,12.12-.36,1.16-.56,2.42-.19,3.58.51,1.61,2.06,2.73,3.69,3.15,1.63.42,3.36.25,5.03-.02,6.17-.98,12.15-3.22,17.45-6.52,1.93-1.2,3.8-2.57,5.12-4.41,1.33-1.84,2.04-4.23,1.47-6.42-.81-3.09-4.03-5.08-7.21-5.38s-6.32.75-9.28,1.96c-6.84,2.81-13.72,7.01-16.61,13.82-.21.5-.41,1.03-.36,1.57.15,1.81,2.53,2.36,4.34,2.29,3.24-.14,6.46-.72,9.53-1.73"/>
      </g>
      <g>
        <path class="cls-36" d="M1155.95,913.35c13.18-13.93,34.97-11.69,42.7-10.9,33.12,3.4,53.49,29.22,58.74,36.34,1.73-2.08,14.41-16.85,35.73-16.96,22.3-.11,35.4,15.91,36.94,17.87,3.94-2.79,18.36-12.26,38.46-10.6,11.25.93,31.25,5.05,32.4,13.32,1.64,11.81-35.7,27.23-56.77,33.98-82.76,26.52-188.8,7.28-198.04-30.89-2.61-10.78,2.25-24.14,9.84-32.16Z"/>
        <path class="cls-21" d="M1155.95,913.35c6.43-3.93,22.06-12.23,42.7-10.9,36.46,2.36,56.46,32.74,58.74,36.34,1.73-2.08,14.41-16.85,35.73-16.96,22.3-.11,35.4,15.91,36.94,17.87,3.94-2.79,18.36-12.26,38.46-10.6,16.99,1.4,28.36,9.96,32.4,13.32"/>
      </g>
      <g>
        <g>
          <circle class="cls-35" cx="480.58" cy="804.66" r="107.52"/>
          <g class="cls-43">
            <path class="cls-1" d="M386.08,748.67c-3.13,38.37,11.53,74.44,39.43,90.84,42.6,25.05,95.68-7.74,118.92-29.5,19.07-17.86,28.56-38.12,33.35-51.34,28.45,37.59,34.65,86.02,15.91,125.28-24.44,51.21-81.75,67-119.96,64.48-91.57-6.06-164.12-121.65-139.91-169.83,9.67-19.24,34.23-26.67,52.25-29.92Z"/>
          </g>
          <circle class="cls-6" cx="480.58" cy="804.66" r="107.52"/>
        </g>
        <circle class="cls-49" cx="521.55" cy="782.94" r="11.22"/>
        <circle class="cls-49" cx="433.78" cy="798.46" r="11.54"/>
        <path class="cls-17" d="M494.63,801.29c-2.03,7.09-8.2,12.13-15.24,12.55-6.05.36-11.9-2.73-15.26-8.01"/>
        <ellipse class="cls-55" cx="544.43" cy="810" rx="20.1" ry="16.76" transform="translate(-224.3 208.71) rotate(-18.06)"/>
        <ellipse class="cls-55" cx="425.51" cy="832.35" rx="16.76" ry="20.8" transform="translate(-473.28 1089.32) rotate(-78.88)"/>
        <path class="cls-39" d="M515.21,744.24c-1.82-5.14-6.34-8.96-11.32-11.18-4.98-2.22-10.45-3.05-15.84-3.86-.67-.1-1.37-.2-2.02,0-1.32.39-2.06,1.91-1.95,3.28s.89,2.6,1.76,3.67c5.45,6.69,14.57,8.9,23.01,10.71,1.2.26,2.5.51,3.64.04,2.23-.91,2.56-4.2,1.18-6.17-1.38-1.97-3.8-2.89-6.12-3.54-3.73-1.04-7.72-1.67-11.46-.66,3.18,3.8,8.6,5.57,13.41,4.38-3.19-3.12-7.79-4.73-12.22-4.28,1.27,2.39,3.8,3.82,6.33,4.79s5.2,1.62,7.5,3.04c.62-.62.53-1.7.04-2.42s-1.29-1.18-2.06-1.58c-5.7-2.98-11.94-4.9-18.33-5.63-.46-.05-1.04-.04-1.27.37-.35.64.55,1.21,1.26,1.39,1.68.42,3.36.85,5.04,1.27-3.11-2.47-6.21-4.94-9.32-7.41,2.22-1.88,5.22-2.65,8.13-2.58s5.74.92,8.45,1.97c6.14,2.38,12.3,6.37,14.27,12.65.38,1.21.59,2.53.2,3.74-.53,1.68-2.15,2.85-3.85,3.28s-3.51.26-5.25-.02c-6.44-1.03-12.68-3.36-18.22-6.81-2.01-1.25-3.96-2.68-5.35-4.61-1.38-1.92-2.13-4.41-1.53-6.7.85-3.22,4.2-5.3,7.52-5.62,3.32-.32,6.6.78,9.68,2.05,7.14,2.93,14.32,7.32,17.34,14.42.22.52.42,1.08.38,1.64-.15,1.89-2.64,2.46-4.53,2.39-3.38-.14-6.74-.75-9.95-1.81"/>
      </g>
      <g>
        <path class="cls-36" d="M614.99,864.01c-13.75-14.54-36.5-12.2-44.56-11.38-34.57,3.55-55.83,30.5-61.31,37.93-1.81-2.18-15.04-17.59-37.3-17.7-23.28-.12-36.95,16.6-38.56,18.65-4.11-2.91-19.16-12.8-40.14-11.06-2.86.24-30.14,1.97-33.82,13.91-4.25,13.82,21.6,37.23,46.93,48.32,11.89,5.2,31.9,11.3,101.36-.58,68.3-11.69,111.18-19.51,117.66-44.51,3.12-12.04-2.83-25.7-10.27-33.57Z"/>
        <path class="cls-8" d="M614.99,864.01c-6.71-4.1-23.03-12.77-44.56-11.38-38.06,2.46-58.93,34.17-61.31,37.93-1.81-2.18-15.04-17.59-37.29-17.7-23.28-.12-36.95,16.6-38.56,18.65-4.11-2.91-19.16-12.8-40.14-11.06-17.73,1.47-29.61,10.4-33.82,13.91"/>
      </g>
      <g>
        <g>
          <circle class="cls-60" cx="1164.43" cy="635.77" r="77.78"/>
          <g class="cls-26">
            <path class="cls-52" d="M1244.64,604.48c-7.8,32.69-33.41,57.76-64.91,63.64-36.95,6.9-75.53-13.82-91.59-50.61-5.27,8.15-15.02,26-12.21,47.51,4.86,37.19,44.02,60.42,73.66,65.41,65.46,11.03,135.83-58.22,126.83-96.17-3.59-15.16-19.64-24.49-31.78-29.78Z"/>
          </g>
          <circle class="cls-12" cx="1164.43" cy="635.77" r="77.78"/>
        </g>
        <circle class="cls-49" cx="1134.79" cy="620.06" r="8.12"/>
        <circle class="cls-49" cx="1198.28" cy="631.28" r="8.34"/>
        <path class="cls-5" d="M1154.26,633.33c1.47,5.13,5.93,8.77,11.02,9.08,4.38.26,8.61-1.98,11.04-5.79"/>
        <ellipse class="cls-28" cx="1118.24" cy="639.63" rx="12.12" ry="14.54" transform="translate(163.43 1504.45) rotate(-71.94)"/>
        <ellipse class="cls-28" cx="1204.26" cy="655.79" rx="15.05" ry="12.12" transform="translate(-103.88 244.6) rotate(-11.12)"/>
        <path class="cls-37" d="M1139.38,592.06c1.32-3.72,4.59-6.48,8.19-8.08s7.56-2.21,11.46-2.79c.49-.07.99-.14,1.46,0,.96.28,1.49,1.38,1.41,2.37-.08.99-.65,1.88-1.28,2.65-3.95,4.84-10.54,6.44-16.65,7.74-.87.19-1.81.37-2.63.03-1.61-.66-1.85-3.04-.85-4.47,1-1.43,2.75-2.09,4.43-2.56,2.7-.75,5.58-1.21,8.29-.48-2.3,2.75-6.22,4.03-9.7,3.17,2.31-2.26,5.63-3.42,8.84-3.1-.92,1.73-2.75,2.76-4.58,3.46s-3.76,1.17-5.43,2.2c-.45-.45-.38-1.23-.03-1.75s.93-.85,1.49-1.15c4.12-2.16,8.64-3.54,13.26-4.07.34-.04.75-.03.92.26.25.46-.4.88-.91,1.01-1.22.31-2.43.61-3.65.92,2.25-1.79,4.49-3.57,6.74-5.36-1.6-1.36-3.78-1.91-5.88-1.86-2.1.05-4.15.67-6.11,1.42-4.44,1.72-8.9,4.61-10.32,9.15-.27.87-.42,1.83-.15,2.7.39,1.21,1.55,2.06,2.79,2.37s2.54.19,3.8-.01c4.66-.74,9.17-2.43,13.18-4.92,1.45-.91,2.87-1.94,3.87-3.33,1-1.39,1.54-3.19,1.11-4.85-.61-2.33-3.04-3.84-5.44-4.07-2.4-.23-4.77.57-7.01,1.48-5.16,2.12-10.36,5.3-12.54,10.43-.16.38-.31.78-.27,1.19.11,1.37,1.91,1.78,3.28,1.73,2.44-.1,4.87-.54,7.2-1.31"/>
      </g>
      <g>
        <path class="cls-36" d="M1084.14,686.6c10.54-8.37,28.22-1.5,43.03,4.26,8.42,3.27,21,9.23,34.52,20.29,6.33-4.4,18.94-11.91,36.64-14.53,19.34-2.87,34.74,1.58,42.09,4.24,1.11,3.22,2.1,7.76.97,12.7-5.4,23.69-54.56,34.5-91.51,31.05-28.39-2.65-70.23-15.67-73.42-37.89-1.06-7.38,2.14-15.71,7.67-20.11Z"/>
        <path class="cls-21" d="M1084.78,687.83c8.01-1.33,23.86-2.87,42.39,3.03,17.2,5.48,28.69,14.81,34.52,20.29,6.33-4.4,18.94-11.91,36.64-14.53,19.34-2.87,34.74,1.58,42.09,4.24"/>
      </g>
      <g>
        <g>
          <circle class="cls-25" cx="696.84" cy="639.31" r="86.62"/>
          <g class="cls-27">
            <path class="cls-46" d="M617.21,593.93c3.51,37.26,27.85,68.9,61.68,80.3,39.68,13.37,85.44-3.47,108.89-41.55,4.54,9.81,12.52,31.01,6.07,54.3-11.15,40.26-57.96,59.77-91.43,60.66-73.91,1.96-140.73-85.36-124.9-125.81,6.32-16.16,25.48-23.94,39.69-27.9Z"/>
          </g>
          <circle class="cls-15" cx="696.84" cy="639.31" r="86.62"/>
        </g>
        <circle class="cls-49" cx="729.85" cy="621.82" r="9.04"/>
        <circle class="cls-49" cx="659.14" cy="634.32" r="9.29"/>
        <path class="cls-11" d="M708.16,636.6c-1.64,5.72-6.61,9.77-12.28,10.11-4.88.29-9.59-2.2-12.29-6.45"/>
        <ellipse class="cls-44" cx="748.29" cy="643.62" rx="16.2" ry="13.5" transform="translate(-162.67 263.71) rotate(-18.06)"/>
        <ellipse class="cls-44" cx="652.47" cy="661.62" rx="13.5" ry="16.76" transform="translate(-122.57 1174.23) rotate(-78.88)"/>
        <path class="cls-38" d="M724.74,590.63c-1.47-4.14-5.11-7.22-9.12-9-4.01-1.79-8.42-2.46-12.76-3.11-.54-.08-1.1-.16-1.63,0-1.07.31-1.66,1.54-1.57,2.64s.72,2.09,1.42,2.95c4.39,5.39,11.74,7.17,18.54,8.63.97.21,2.01.41,2.93.03,1.79-.73,2.06-3.38.95-4.97s-3.06-2.33-4.93-2.85c-3-.84-6.22-1.34-9.23-.54,2.56,3.06,6.93,4.49,10.81,3.53-2.57-2.51-6.28-3.81-9.85-3.45,1.02,1.92,3.06,3.08,5.1,3.86,2.03.78,4.19,1.3,6.04,2.45.5-.5.43-1.37.03-1.95s-1.04-.95-1.66-1.28c-4.59-2.4-9.62-3.95-14.77-4.53-.37-.04-.84-.04-1.02.29-.28.51.45.98,1.01,1.12,1.35.34,2.71.68,4.06,1.02-2.5-1.99-5-3.98-7.51-5.97,1.79-1.51,4.21-2.13,6.55-2.07s4.62.74,6.8,1.59c4.94,1.91,9.91,5.13,11.5,10.19.31.97.47,2.04.16,3.01-.43,1.35-1.73,2.29-3.1,2.65s-2.83.21-4.23-.02c-5.19-.83-10.22-2.7-14.68-5.48-1.62-1.01-3.19-2.16-4.31-3.71-1.11-1.55-1.72-3.55-1.23-5.4.68-2.6,3.39-4.27,6.06-4.53,2.67-.26,5.32.63,7.8,1.65,5.75,2.36,11.54,5.9,13.97,11.62.18.42.34.87.3,1.32-.12,1.52-2.12,1.99-3.65,1.92-2.72-.11-5.43-.61-8.02-1.46"/>
      </g>
      <g>
        <path class="cls-36" d="M779.2,685.33c-11.3-8.97-30.25-1.61-46.13,4.56-9.03,3.51-22.51,9.89-37,21.75-6.79-4.72-20.3-12.77-39.27-15.58-20.73-3.07-37.24,1.69-45.12,4.54-1.2,3.41-2.33,8.31-1.04,13.61,5.97,24.66,58.38,34.19,96.07,31.19,29.87-2.38,76.91-14.73,80.71-38.52,1.27-7.97-2.36-16.9-8.22-21.55Z"/>
        <path class="cls-20" d="M778.52,686.64c-8.58-1.43-25.58-3.08-45.44,3.25-18.44,5.87-30.75,15.88-37,21.75-6.79-4.72-20.3-12.77-39.27-15.58-20.73-3.07-37.24,1.69-45.12,4.54"/>
      </g>
    </g>
  </g>
  <g>
    <path class="cls-18" d="M1452.55,1428.39l12.72-45.42c-1.43-3.67-13.33-35.76,5.75-67.22,19.65-32.4,55.12-36.03,58.74-36.34.9,2.57,14.27,43.11-12.11,75.7-19.23,23.76-46.58,27.25-52.39,27.86"/>
    <path class="cls-18" d="M1452.55,1421.33c-3.86.1-35.08.34-56.32-25.44-18.81-22.82-15.91-49.19-15.34-53.7,7.29.91,28.51,4.51,46.83,22.21,23.18,22.4,24.65,50.88,24.83,56.93Z"/>
    <path class="cls-7" d="M1423.67,1393.91c9.63,9.14,19.26,18.28,28.89,27.41"/>
    <line class="cls-4" x1="1465.27" y1="1382.97" x2="1496.36" y2="1334.12"/>
  </g>
  <g>
    <path class="cls-18" d="M900.14,1514.61l12.72-45.42c-1.43-3.67-13.33-35.76,5.75-67.22,19.65-32.4,55.12-36.03,58.74-36.34.9,2.57,14.27,43.11-12.11,75.7-19.23,23.76-46.58,27.25-52.39,27.86"/>
    <path class="cls-18" d="M900.14,1507.54c-3.86.1-35.08.34-56.32-25.44-18.81-22.82-15.91-49.19-15.34-53.7,7.29.91,28.51,4.51,46.83,22.21,23.18,22.4,24.65,50.88,24.83,56.93Z"/>
    <path class="cls-7" d="M871.25,1480.13c9.63,9.14,19.26,18.28,28.89,27.41"/>
    <line class="cls-4" x1="912.86" y1="1469.19" x2="943.95" y2="1420.34"/>
  </g>
  <g>
    <path class="cls-18" d="M342,1428.41l-12.72-45.42c1.43-3.67,13.33-35.76-5.75-67.22-19.65-32.4-55.12-36.03-58.74-36.34-.9,2.57-14.27,43.11,12.11,75.7,19.23,23.76,46.58,27.25,52.39,27.86"/>
    <path class="cls-18" d="M342,1421.34c3.86.1,35.08.34,56.32-25.44,18.81-22.82,15.91-49.19,15.34-53.7-7.29.91-28.51,4.51-46.83,22.21-23.18,22.4-24.65,50.88-24.83,56.93Z"/>
    <path class="cls-7" d="M370.89,1393.93c-9.63,9.14-19.26,18.28-28.89,27.41"/>
    <line class="cls-4" x1="329.28" y1="1382.99" x2="298.2" y2="1334.14"/>
  </g>
  <path class="cls-24" d="M1185.39,1397.41c-10.94,7.69-18.96,19.44-22.13,32.43-.94,3.85-1.33,8.35,1.25,11.36,2.24,2.61,6.18,3.25,9.49,2.3,3.31-.95,6.07-3.21,8.5-5.65,4.91-4.93,8.85-10.82,11.54-17.23,2.19-5.21,3.01-12.37-1.7-15.51-2.5-1.67-5.9-1.52-8.64-.27-2.74,1.25-4.93,3.44-6.88,5.73-4.42,5.2-7.95,11.16-10.37,17.55-1.47,3.88-2.2,9.02,1.11,11.51,2.32,1.75,5.76,1.25,8.16-.39,2.4-1.64,4.01-4.18,5.55-6.65,3.23-5.19,6.46-10.39,9.7-15.58,1.64-2.63,3.34-5.72,2.36-8.66-1.26-3.76-6.45-4.86-10.04-3.17-3.59,1.69-5.91,5.2-8.04,8.55-2.56,4.02-5.21,8.28-5.43,13.04s2.97,10.04,7.73,10.3c4.87.27,8.39-4.38,10.98-8.51,3.31-5.28,6.55-12.45,2.57-17.24-2.65-3.19-8.29-3.34-10.88-.1s-.88,8.98,3.14,10.01c4.02,1.03,8.34-3.61,6.77-7.45-5.81-.04-10.96,5.72-10.28,11.49.93-.43,1.85-.85,2.78-1.28-3.93.92-6.79,5.14-6.18,9.13,7.6-3.43,13.58-10.27,15.97-18.26,1.15-3.83.9-9.01-2.79-10.57-3.73-1.58-7.57,1.87-10.04,5.08-3.24,4.23-6.23,8.67-8.93,13.27-2.56,4.35-4.66,10.43-1.05,13.94,2.39,2.33,6.4,2.21,9.34.63s5.07-4.3,7.11-6.94c3.11-4.04,6.33-8.29,7.19-13.32.86-5.03-1.52-11-6.42-12.4-5.83-1.66-11.17,3.53-15.02,8.21-3.42,4.16-6.93,8.49-8.3,13.69-1.37,5.2.02,11.55,4.65,14.3,5.14,3.06,11.89.56,16.47-3.29,6.5-5.46,10.7-13.57,11.4-22.02.53-6.4-2.02-14.15-8.28-15.57-6.39-1.44-11.86,4.45-15.76,9.72-3.55,4.8-7.21,9.82-8.25,15.7-1.04,5.88,1.41,12.84,6.99,14.94,3.78,1.43,8.15.33,11.53-1.88s5.99-5.41,8.53-8.55c2.75-3.4,5.54-6.88,7.06-10.98,1.52-4.1,1.56-9.01-.99-12.56-3.86-5.39-12.33-5.56-17.9-1.97-5.57,3.59-8.79,9.84-11.25,15.99-1.49,3.73-2.8,7.67-2.49,11.67s2.64,8.09,6.45,9.35c3.81,1.26,8.74-1.46,8.76-5.48"/>
  <path class="cls-56" d="M589.47,1396.24c-15.95,12.34-.6,32.98,10.85,41.72,6,4.58,14,4.07,16.59-3.85s1-17.08-2.46-24.38c-3.19-6.73-9.76-15.06-17.59-16.37-8.52-1.43-14.23,6.58-16.13,13.82-2.51,9.57,2.89,16.52,9.3,23.04,4.54,4.61,13.17,14.69,20.29,9.77,7.05-4.87,8.5-16.21,6.44-23.83-2.76-10.18-11.79-14.96-19.97-20.44-1.21-.81-3.45-.35-4.06,1.06-3.09,7.27,4.59,10.95,8.74,15.71,2.98,3.42,5.54,7.46,6.41,11.97.58,3.03.17,4.9-2.76,2.95-1.95-1.3-3.8-3.5-5.38-5.2-1.71-1.84-3.31-3.81-4.53-6.01-1.4-2.53-1.61-4.89-2.5-7.49-.26-.76-1.82-3.25-1.24-1.22.26.91,1.76,2.18,2.36,2.92,1.58,1.95,3.15,3.9,4.73,5.84,1.66,2.05,3.44,4.06,4.91,6.25.93,1.38.68,2.51,2.3,1.19,1.65-1.35.17-1.98-.98-3.47-3.31-4.3-6.41-8.75-9.37-13.29-1.5-2.3-5.72-1.61-5.53,1.5.53,8.3,3.96,15.7,10.17,21.27,2.83,2.54,7.04-1.64,4.19-4.19-5.04-4.53-8-10.28-8.43-17.08-1.84.5-3.68,1-5.53,1.5,2.69,4.14,5.5,8.19,8.47,12.13,1.6,2.12,3.48,5.66,6.03,6.78,2.02.89,4.72.39,5.78-1.76,1.11-2.26-.39-4.97-1.54-6.9-1.9-3.17-4.56-5.98-6.88-8.85-2.38-2.94-5.15-8.15-8.47-10.03-5.66-3.2-7.33,4.14-6.88,8.2.82,7.42,5.32,13.57,10.47,18.69,3.36,3.33,9.24,10.3,14.32,5.61,4.25-3.93,2.32-11.44.37-15.92-1.33-3.06-3.17-5.82-5.29-8.39-1.1-1.33-9.48-8.18-8.83-9.71-1.35.35-2.7.71-4.06,1.06,5.71,3.83,13.02,7.34,16.12,13.81,2.69,5.61,2.65,13.96-1.54,18.92-3.35,3.96-8.24-1.97-10.9-4.4-2.79-2.55-5.54-5.29-7.9-8.27-2.96-3.73-4.36-7.3-3.14-12.14.95-3.75,3.18-8.67,7.47-9.51,7.26-1.41,14.16,9.92,16.24,15.48,1.41,3.76,5.08,21.24-2.96,20.31-3.25-.37-6.51-4.48-8.77-6.69-2.91-2.83-5.67-5.89-7.55-9.53-3.18-6.15-3.02-13.91,2.77-18.39,3.01-2.33-1.21-6.5-4.19-4.19h0Z"/>
</svg>