<?xml version="1.0" encoding="UTF-8"?>
<svg id="Layer_1" data-name="Layer 1" xmlns="http://www.w3.org/2000/svg" xmlns:xlink="http://www.w3.org/1999/xlink" viewBox="0 0 1800 1800">
  <defs>
    <style>
      .cls-1 {
        fill: #e0d1b8;
      }

      .cls-2 {
        fill: #f4a5ab;
      }

      .cls-3 {
        fill: #6e6962;
      }

      .cls-4 {
        fill: #48443e;
      }

      .cls-5 {
        stroke-width: 12px;
      }

      .cls-5, .cls-6, .cls-7, .cls-8, .cls-9 {
        stroke-linecap: round;
      }

      .cls-5, .cls-9 {
        fill: #5c594f;
        stroke: #48443e;
        stroke-miterlimit: 10;
      }

      .cls-10, .cls-6, .cls-7, .cls-8 {
        fill: none;
      }

      .cls-11 {
        clip-path: url(#clippath-1);
      }

      .cls-6 {
        stroke: #fefefe;
        stroke-width: 61.25px;
      }

      .cls-6, .cls-7, .cls-8 {
        stroke-linejoin: round;
      }

      .cls-12 {
        clip-path: url(#clippath-3);
      }

      .cls-13 {
        fill: #605b52;
      }

      .cls-7 {
        stroke: #5c1f1f;
      }

      .cls-7, .cls-8 {
        stroke-width: 22.69px;
      }

      .cls-8 {
        stroke: #e38d96;
      }

      .cls-14 {
        fill: #5c1f1f;
      }

      .cls-15 {
        clip-path: url(#clippath-2);
      }

      .cls-9 {
        stroke-width: 7px;
      }

      .cls-16 {
        clip-path: url(#clippath);
      }
    </style>
    <clipPath id="clippath">
      <rect class="cls-10" x="419.6" y="188.43" width="480.4" height="1423.15"/>
    </clipPath>
    <clipPath id="clippath-1">
      <rect class="cls-10" x="900" y="188.43" width="480.4" height="1423.15"/>
    </clipPath>
    <clipPath id="clippath-2">
      <rect class="cls-10" x="419.6" y="188.43" width="480.4" height="1423.15"/>
    </clipPath>
    <clipPath id="clippath-3">
      <rect class="cls-10" x="900" y="188.43" width="480.4" height="1423.15"/>
    </clipPath>
  </defs>
  <g>
    <g id="_Mirror_Repeat_" data-name="&amp;lt;Mirror Repeat&amp;gt;">
      <g class="cls-16">
        <g>
          <path class="cls-3" d="M895.96,1604.2c-67.58,0-137.3-14.02-201.61-40.56-63.23-26.09-117.38-62.57-156.59-105.51-79.4-86.94-117.38-224.28-109.84-397.19,6.58-150.88,47.31-320.06,114.69-476.39,47.76-110.81,104.98-205.64,165.48-274.23,65.17-73.9,131.49-113.49,191.79-114.51.81-.01,1.63-.02,2.44-.02,58.64,0,124.55,35.94,190.61,103.94,61.82,63.64,121.17,152.08,171.65,255.76,71.55,146.98,117.42,308.3,129.17,454.24,6.44,80.04,2.53,153.93-11.62,219.62-15.41,71.51-42.95,132.94-81.86,182.59-39.85,50.85-97.76,97.57-163.08,131.58-74.92,39-156.91,59.98-237.11,60.65-1.37.01-2.74.02-4.11.02Z"/>
          <path class="cls-4" d="M902.32,203.17c280.45,0,668.68,851.37,392.14,1204.23-74.04,94.47-222.96,187.96-394.45,189.41-1.35.01-2.7.02-4.04.02-137.31,0-275.24-58.78-352.76-143.66C250.12,1132.25,610.32,208.06,900,203.19c.77-.01,1.54-.02,2.32-.02M902.32,188.43h0c-.86,0-1.71,0-2.56.02-32.46.55-66.39,11.57-100.87,32.76-31.92,19.62-64.33,47.96-96.33,84.25-61.01,69.18-118.66,164.68-166.72,276.19-32.71,75.88-59.31,155.2-79.06,235.74-20.68,84.3-32.86,166.14-36.23,243.24-3.62,83.02,3.15,158.46,20.14,224.23,18.62,72.1,49.44,132.07,91.62,178.25,39.94,43.73,95,80.85,159.22,107.35,65.2,26.9,135.89,41.12,204.43,41.12,1.39,0,2.78,0,4.17-.02,42.36-.36,85.17-6.22,127.24-17.42,38.79-10.33,76.89-25.15,113.22-44.07,66.23-34.48,125-81.92,165.48-133.57,164.41-209.78,100.95-585.22-34.87-864.24-50.81-104.38-110.62-193.47-172.98-257.66-32.47-33.43-65.08-59.43-96.9-77.26-34.22-19.18-67.53-28.91-98.99-28.91h0Z"/>
        </g>
      </g>
    </g>
    <g id="_Mirror_Repeat_-2" data-name="&amp;lt;Mirror Repeat&amp;gt;">
      <g class="cls-11">
        <g>
          <path class="cls-3" d="M904.04,1604.2c-1.37,0-2.74,0-4.11-.02-80.21-.68-162.2-21.65-237.11-60.65-65.32-34-123.23-80.73-163.08-131.58-38.91-49.65-66.45-111.08-81.86-182.59-14.16-65.69-18.07-139.58-11.62-219.62,11.75-145.94,57.62-307.26,129.17-454.24,50.47-103.68,109.83-192.12,171.65-255.76,66.06-68,131.97-103.94,190.61-103.94.81,0,1.63,0,2.44.02,60.29,1.01,126.61,40.61,191.79,114.51,60.5,68.6,117.72,163.43,165.48,274.24,67.38,156.33,108.11,325.51,114.69,476.39,7.54,172.9-30.44,310.25-109.84,397.19-39.21,42.94-93.36,79.42-156.59,105.51-64.31,26.53-134.03,40.56-201.6,40.56h0Z"/>
          <path class="cls-4" d="M897.68,203.17c.77,0,1.54,0,2.32.02,289.68,4.87,649.88,929.06,356.8,1249.97-77.52,84.88-215.45,143.66-352.76,143.66-1.35,0-2.7,0-4.04-.02-171.49-1.45-320.41-94.94-394.45-189.41C229,1054.54,617.23,203.17,897.68,203.17M897.68,188.43c-31.47,0-64.77,9.73-99,28.91-31.82,17.84-64.43,43.83-96.9,77.27-62.36,64.19-122.18,153.29-172.99,257.67-135.82,279.01-199.27,654.44-34.86,864.23,40.48,51.65,99.25,99.09,165.48,133.57,36.33,18.92,74.42,33.74,113.22,44.07,42.07,11.2,84.88,17.06,127.24,17.42,1.39.01,2.78.02,4.17.02,68.54,0,139.23-14.22,204.43-41.12,64.23-26.5,119.28-63.62,159.22-107.35,42.17-46.18,73-106.15,91.62-178.25,16.99-65.77,23.76-141.21,20.14-224.23-3.36-77.11-15.55-158.94-36.23-243.24-19.75-80.54-46.35-159.86-79.06-235.74-48.06-111.51-105.71-207.02-166.72-276.19-32-36.28-64.41-64.63-96.33-84.25-34.47-21.19-68.41-32.21-100.87-32.76-.85-.01-1.71-.02-2.56-.02h0Z"/>
        </g>
      </g>
    </g>
  </g>
  <path class="cls-13" d="M1372.03,1040.92c-16.38,68.53-54.09,181.66-147.33,287.12-200.06,226.27-489.37,228.97-539.87,228.62,40.54,19.09,109.69,45.45,198.47,48.94,46.12,1.81,194.59,5.37,321.66-100.28,86.79-72.17,120.51-159.47,137.54-205.19,41.31-110.96,35.9-208.73,29.54-259.2Z"/>
  <path class="cls-1" d="M661.6,1402.29c9.3,53.8,20.63,107.43,32.75,161.36-24.05-49.77-44.2-101.46-61.37-154.24-17.11-52.8-31-106.77-41.8-161.44-1.35-6.83-2.55-13.68-3.83-20.53l-3.68-20.59c-2.19-13.76-4.29-27.54-6.3-41.36-1.69-13.83-3.4-27.68-4.88-41.55l-1.83-20.85-.87-10.42c-.31-3.47-.56-6.95-.74-10.44-.42-6.96-.78-13.93-1.12-20.89-.34-6.96-.76-13.93-.91-20.91l-.5-20.92-.23-10.46v-10.46c.06-13.94-.03-27.89.42-41.82l.5-20.91c.22-6.96.57-13.93.86-20.89.35-6.95.6-13.92,1.02-20.87l1.38-20.85c.79-13.92,2.16-27.78,3.29-41.65.54-6.94,1.3-13.86,2.02-20.78l2.17-20.77,2.51-20.72,1.28-10.36.66-5.17.75-5.17c2.03-13.76,3.83-27.55,6.16-41.25l3.33-20.59,3.66-20.53c2.36-13.69,5.15-27.3,7.83-40.94,1.34-6.81,2.9-13.58,4.34-20.37l2.2-10.17,1.1-5.09,1.18-5.07c19.58-86.45,45.02-171.42,75.91-254.15h.01c10.72-12.82,22.94-26.08,37.34-39.78,4.22-4.02,8.39-7.99,12.52-11.88-33.89,103.39-61.6,208.52-81.14,314.98-9.71,53.44-17.58,107.14-23.15,161.04-5.71,53.89-9.05,107.96-10.11,162.03-.11,6.76-.34,13.52-.4,20.28l-.05,20.27c-.16,13.51.23,27.02.44,40.53.48,27.02,1.59,54,2.84,80.98l2.18,40.47c.39,6.74.91,13.48,1.35,20.21l1.29,20.25,1.62,20.21,1.54,20.25,1.99,20.2c.64,6.75,1.19,13.5,1.89,20.25l4.57,40.43,2.68,20.18c.86,6.74,1.68,13.49,2.6,20.22,3.82,26.92,7.97,53.85,12.69,80.72Z"/>
  <path class="cls-1" d="M1226.69,1079.23c-11.59,167.06-53.38,333.17-125.24,484.41,19.88-87.75,37.19-174.93,48.31-263.82,8.02-59.54,13.18-123,16.71-183.07,3.38-60.9,5.64-122.3,4.89-183.32-3.04-225.72-47.21-448.78-119.3-662.67l2.51-.94c13.38,12.34,28.75,28.27,46.39,49.09,62.29,162.8,103.68,334.58,120.12,508.21,7.84,83.58,10.65,168.25,5.6,252.1Z"/>
  <path class="cls-1" d="M793.43,1594.65c-4.13-13.86-8.04-27.79-11.88-41.74-22.71-83.86-40.63-169.09-53.62-255.02-53.87-354.9-30.26-722.12,68.24-1067.24.31-.2.6-.41.91-.61-42.2,208.91-69.16,421.34-73.13,634.57-5.25,245.13,19.86,489.81,69.48,730.04Z"/>
  <path class="cls-1" d="M563.26,1479.63c-5.51-5.39-10.76-10.81-15.77-16.23-7.51-22.04-14.52-44.24-21.05-66.56-55.33-188.82-73.47-387.57-56.91-583.49,7.25-26.47,14.92-52.09,22.65-76.38-6.89,60.41-10.84,121.17-11.65,182.08-2.62,173.66,20.66,347.91,68.9,514.74,4.39,15.35,9.01,30.64,13.83,45.85Z"/>
  <path class="cls-1" d="M1213.97,1498.33c-3.09,2.45-6.1,4.78-9.02,6.99,21.44-63.06,39.38-127.28,53.47-192.42,32.4-149.55,44.79-303.68,36.85-456.49-4.22-85.31-14.64-170.17-30.6-254.02,4.96,11.86,10.05,24.5,15.2,37.87.01.01.01.02.01.03,53.05,285.8,32.66,584.53-65.91,858.04Z"/>
  <g>
    <g class="cls-15">
      <path class="cls-10" d="M895.96,1604.2c-67.58,0-137.3-14.02-201.61-40.56-63.23-26.09-117.38-62.57-156.59-105.51-79.4-86.94-117.38-224.28-109.84-397.19,6.58-150.88,47.31-320.06,114.69-476.39,47.76-110.81,104.98-205.64,165.48-274.24,65.17-73.9,131.49-113.49,191.79-114.51.81-.01,1.63-.02,2.44-.02,58.64,0,124.55,35.94,190.61,103.94,61.82,63.64,121.17,152.08,171.65,255.76,71.55,146.98,117.42,308.3,129.17,454.24,13.51,167.85-18.82,306.93-93.49,402.21-39.85,50.84-97.77,97.57-163.08,131.58-74.91,39-156.91,59.97-237.11,60.65-1.37.01-2.74.02-4.11.02Z"/>
      <path class="cls-4" d="M902.32,203.17c280.45,0,668.68,851.37,392.14,1204.23-74.04,94.47-222.96,187.96-394.45,189.41-1.34.01-2.7.02-4.04.02-137.31,0-275.24-58.78-352.76-143.66C250.12,1132.25,610.32,208.06,900,203.19c.77-.01,1.54-.02,2.32-.02M902.32,188.43h0c-.86,0-1.71,0-2.56.02-32.45.55-66.39,11.57-100.87,32.76-31.92,19.62-64.33,47.96-96.33,84.25-61.01,69.18-118.66,164.68-166.72,276.19-32.71,75.88-59.31,155.2-79.06,235.74-20.68,84.3-32.87,166.14-36.23,243.24-3.62,83.02,3.15,158.46,20.14,224.23,18.62,72.1,49.44,132.07,91.62,178.25,39.94,43.73,95,80.85,159.22,107.35,65.2,26.9,135.88,41.12,204.43,41.12,1.39,0,2.78,0,4.17-.02,81.36-.69,164.51-21.95,240.45-61.48,66.23-34.48,125-81.92,165.48-133.57,164.41-209.78,100.95-585.22-34.87-864.24-50.81-104.37-110.63-193.47-172.98-257.66-32.47-33.43-65.07-59.43-96.9-77.26-34.22-19.18-67.53-28.91-98.99-28.91Z"/>
    </g>
    <g class="cls-12">
      <path class="cls-10" d="M904.04,1604.2c67.58,0,137.3-14.02,201.61-40.56,63.23-26.09,117.38-62.57,156.59-105.51,79.4-86.94,117.38-224.28,109.84-397.19-6.58-150.88-47.31-320.06-114.69-476.39-47.76-110.81-104.98-205.64-165.48-274.24-65.17-73.9-131.49-113.49-191.79-114.51-.81-.01-1.63-.02-2.44-.02-58.64,0-124.55,35.94-190.61,103.94-61.82,63.64-121.17,152.08-171.65,255.76-71.55,146.98-117.42,308.3-129.17,454.24-13.51,167.85,18.82,306.93,93.49,402.21,39.85,50.84,97.77,97.57,163.08,131.58,74.91,39,156.91,59.97,237.11,60.65,1.37.01,2.74.02,4.11.02Z"/>
      <path class="cls-4" d="M897.68,203.17c-280.45,0-668.68,851.37-392.14,1204.23,74.04,94.47,222.96,187.96,394.45,189.41,1.34.01,2.7.02,4.04.02,137.31,0,275.24-58.78,352.76-143.66,293.08-320.91-67.12-1245.11-356.8-1249.97-.77-.01-1.54-.02-2.32-.02M897.68,188.43h0c.86,0,1.71,0,2.56.02,32.45.55,66.39,11.57,100.87,32.76,31.92,19.62,64.33,47.96,96.33,84.25,61.01,69.18,118.66,164.68,166.72,276.19,32.71,75.88,59.31,155.2,79.06,235.74,20.68,84.3,32.87,166.14,36.23,243.24,3.62,83.02-3.15,158.46-20.14,224.23-18.62,72.1-49.44,132.07-91.62,178.25-39.94,43.73-95,80.85-159.22,107.35-65.2,26.9-135.88,41.12-204.43,41.12-1.39,0-2.78,0-4.17-.02-81.36-.69-164.51-21.95-240.45-61.48-66.23-34.48-125-81.92-165.48-133.57-164.41-209.78-100.95-585.22,34.87-864.24,50.81-104.37,110.63-193.47,172.98-257.66,32.47-33.43,65.07-59.43,96.9-77.26,34.22-19.18,67.53-28.91,98.99-28.91Z"/>
    </g>
  </g>
  <g>
    <circle class="cls-2" cx="636.16" cy="1038.22" r="104.26"/>
    <circle class="cls-2" cx="1163.84" cy="1040.92" r="104.26"/>
    <path class="cls-8" d="M604.89,1000.95c-8.69,17.96-17.38,35.91-26.06,53.87"/>
    <path class="cls-8" d="M667.15,1015.72c-6.47,13.03-12.94,26.07-19.4,39.1"/>
    <g>
      <path class="cls-8" d="M1176.87,999.8c8.69,17.96,17.38,35.91,26.06,53.87"/>
      <path class="cls-8" d="M1114.6,1014.57c6.47,13.03,12.94,26.07,19.4,39.1"/>
    </g>
    <ellipse class="cls-14" cx="765.62" cy="942.45" rx="35.91" ry="41.68"/>
    <ellipse class="cls-14" cx="1030.33" cy="942.45" rx="35.91" ry="41.68"/>
    <path class="cls-7" d="M855.4,999.8c1.78,2.46,15.48,20.68,39.97,22.01,27.98,1.52,44.57-20.38,45.76-22.01"/>
    <path class="cls-6" d="M780.1,425.78c-38.28,39.67-62.45,76.08-77.62,102.52-23.45,40.88-50.97,102.52-50.97,102.52"/>
    <path class="cls-6" d="M616.76,732.48c-2.74,5.35-5.47,11.15-8.11,17.38-3.23,7.62-5.89,14.9-8.11,21.72"/>
  </g>
  <path class="cls-5" d="M1369.79,264.65c-50.69,21.19-69.96,40.46-91.16,91.15-1.25,2.98-5.46,2.98-6.71,0-21.19-50.69-40.46-69.96-91.15-91.15-2.98-1.25-2.98-5.46,0-6.71,50.69-21.2,69.96-40.47,91.15-91.16,1.25-2.98,5.46-2.98,6.71,0,21.2,50.69,40.47,69.96,91.16,91.16,2.98,1.25,2.98,5.46,0,6.71Z"/>
  <path class="cls-9" d="M1421.03,367.34c-15.09,6.94-22.23,14.08-29.17,29.17-1.29,2.81-5.3,2.81-6.59,0-6.94-15.09-14.08-22.23-29.17-29.17-2.81-1.29-2.81-5.3,0-6.59,15.09-6.94,22.23-14.08,29.17-29.17,1.29-2.81,5.3-2.81,6.59,0,6.94,15.09,14.08,22.22,29.17,29.17,2.81,1.29,2.81,5.3,0,6.59Z"/>
</svg>