<?xml version="1.0" encoding="UTF-8"?>
<svg id="Layer_1" data-name="Layer 1" xmlns="http://www.w3.org/2000/svg" xmlns:xlink="http://www.w3.org/1999/xlink" viewBox="0 0 1800 1800">
  <defs>
    <style>
      .cls-1 {
        stroke-width: 22.69px;
      }

      .cls-1, .cls-2, .cls-3, .cls-4, .cls-5, .cls-6, .cls-7 {
        fill: none;
      }

      .cls-1, .cls-2, .cls-3, .cls-5, .cls-6, .cls-7 {
        stroke-linejoin: round;
      }

      .cls-1, .cls-2, .cls-3, .cls-5, .cls-6, .cls-7, .cls-8, .cls-9 {
        stroke-linecap: round;
      }

      .cls-1, .cls-5 {
        stroke: #b64245;
      }

      .cls-2 {
        stroke: #45251a;
      }

      .cls-2, .cls-3 {
        stroke-width: 42.92px;
      }

      .cls-3, .cls-8, .cls-9 {
        stroke: #512f24;
      }

      .cls-10 {
        clip-path: url(#clippath-1);
      }

      .cls-11 {
        clip-path: url(#clippath-3);
      }

      .cls-5, .cls-7 {
        stroke-width: 22.69px;
      }

      .cls-12 {
        fill: #e3676c;
      }

      .cls-6 {
        stroke: #d9c4b6;
        stroke-width: 61.25px;
      }

      .cls-7 {
        stroke: #5c1f1f;
      }

      .cls-8 {
        stroke-width: 7px;
      }

      .cls-8, .cls-13, .cls-9 {
        fill: #72503d;
      }

      .cls-8, .cls-9 {
        stroke-miterlimit: 10;
      }

      .cls-14 {
        fill: #5c1f1f;
      }

      .cls-15 {
        clip-path: url(#clippath-2);
      }

      .cls-16 {
        fill: #45251a;
      }

      .cls-17 {
        fill: #644231;
      }

      .cls-18 {
        clip-path: url(#clippath);
      }

      .cls-9 {
        stroke-width: 12px;
      }
    </style>
    <clipPath id="clippath">
      <rect class="cls-4" x="399.92" y="188.44" width="500.08" height="1423.12"/>
    </clipPath>
    <clipPath id="clippath-1">
      <rect class="cls-4" x="900" y="188.44" width="500.08" height="1423.12"/>
    </clipPath>
    <clipPath id="clippath-2">
      <rect class="cls-4" x="399.92" y="188.44" width="500.08" height="1423.12"/>
    </clipPath>
    <clipPath id="clippath-3">
      <rect class="cls-4" x="900" y="188.44" width="500.08" height="1423.12"/>
    </clipPath>
  </defs>
  <g>
    <g id="_Mirror_Repeat_" data-name="&amp;lt;Mirror Repeat&amp;gt;">
      <g class="cls-18">
        <g>
          <path class="cls-13" d="M898.45,1604.19c-15.11,0-69.74-1.43-138.15-19.9-89.47-24.15-164.29-66.53-222.38-125.97-57.26-58.59-96.2-132.53-115.74-219.76-17.08-76.27-19.48-163.09-7.11-258.04,23.3-178.97,92.77-341.2,132.1-421.98,27.5-56.48,57-108.13,85.31-149.36,18.98-27.65,46.25-63.38,68.32-76.55,3.08-1.84,7-3.79,11.54-6.04,17.01-8.45,42.71-21.22,68.56-48.84,8.46-9.04,15.6-18.25,22.5-27.17,16.5-21.31,32.09-41.44,59.73-49.43,16.82-4.86,35.92-5.31,36.72-5.33,0,0,.4,0,1.14,0,5.49,0,24.97.44,44.97,6.16,12.93,3.7,45.83,40.2,64.29,61.63,35.26,40.93,75.42,93.49,113.06,148,74.07,107.25,174.34,272.93,231.42,453.17,33.23,104.93,47.36,201.95,42,288.36-6.21,100.08-38.69,187.19-96.54,258.9-44.04,54.59-103.02,101.41-170.55,135.38-72.58,36.51-151.97,56.14-229.58,56.77-.43,0-.97,0-1.6,0Z"/>
          <path class="cls-16" d="M900.99,203.18c4.49,0,23.6.35,42.94,5.88,46.77,13.37,683.66,785.38,350.52,1198.34-84.35,104.56-232.49,188.1-394.45,189.41-.42,0-.93,0-1.54,0-25.59,0-219.27-4.5-355.26-143.65-325.97-333.55,58.6-1052.89,161.38-1114.21,13.57-8.09,47.86-20.02,81.7-56.17,29.18-31.17,42.82-64.12,78.89-74.55,16.08-4.65,34.83-5.04,34.83-5.04,0,0,.34,0,.99,0M900.99,188.44v14.75-14.75c-.85,0-1.3.01-1.3.01-.85.02-20.89.49-38.62,5.62-29.95,8.66-46.25,29.71-63.51,52-6.8,8.78-13.83,17.86-22.05,26.64-24.94,26.64-49.92,39.06-66.46,47.27-4.67,2.32-8.71,4.33-12.04,6.31-37.9,22.61-100.79,114.65-156.48,229.01-31.51,64.7-58.65,131.83-80.69,199.53-25.26,77.62-42.79,153.23-52.1,224.72-12.47,95.81-10.04,183.49,7.23,260.6,19.84,88.58,59.43,163.72,117.66,223.3,32.27,33.03,70.27,61.24,112.92,83.87,34.68,18.4,72.63,33.22,112.82,44.07,69.29,18.7,124.73,20.15,140.07,20.15.66,0,1.21,0,1.66,0,40.46-.33,81.38-5.68,121.61-15.9,38.09-9.68,75.51-23.69,111.23-41.66,34.29-17.25,66.67-37.95,96.25-61.55,29-23.13,54.81-48.63,76.72-75.79,30.35-37.62,54.06-79.74,70.47-125.21,15.34-42.49,24.66-88.87,27.7-137.86,5.42-87.32-8.82-185.24-42.33-291.05-24.69-77.95-59.89-160.43-104.61-245.14-37.17-70.4-80.16-141.05-127.77-209.99-37.79-54.71-78.11-107.5-113.54-148.62-50.88-59.05-63.65-62.71-67.85-63.91-20.92-5.98-41.26-6.45-46.99-6.45h0Z"/>
        </g>
      </g>
    </g>
    <g id="_Mirror_Repeat_-2" data-name="&amp;lt;Mirror Repeat&amp;gt;">
      <g class="cls-10">
        <g>
          <path class="cls-13" d="M899.94,1604.18c-77.61-.63-157-20.26-229.58-56.77-67.53-33.97-126.5-80.78-170.54-135.38-57.85-71.71-90.33-158.82-96.54-258.9-5.36-86.41,8.77-183.43,42-288.36,57.08-180.23,157.36-345.91,231.42-453.16,37.64-54.51,77.79-107.07,113.06-148,18.46-21.43,51.37-57.93,64.29-61.63,20-5.72,39.48-6.16,44.97-6.16.75,0,1.14,0,1.14,0,.81.02,19.91.47,36.73,5.33,27.64,7.99,43.23,28.12,59.73,49.43,6.9,8.91,14.04,18.13,22.5,27.17,25.85,27.62,51.55,40.39,68.56,48.84,4.54,2.25,8.46,4.2,11.54,6.04,22.07,13.17,49.33,48.9,68.32,76.55,28.31,41.23,57.81,92.88,85.31,149.36,39.33,80.77,108.8,243,132.1,421.98,12.36,94.95,9.97,181.77-7.11,258.04-19.54,87.23-58.48,161.17-115.74,219.76-58.09,59.44-132.91,101.83-222.38,125.97-68.41,18.46-123.03,19.9-138.15,19.9,0,0-1.17,0-1.61,0Z"/>
          <path class="cls-16" d="M899.01,203.18c.65,0,.99,0,.99,0,0,0,18.75.39,34.83,5.04,36.08,10.43,49.71,43.38,78.89,74.55,33.84,36.15,68.14,48.08,81.7,56.17,102.77,61.32,487.35,780.65,161.38,1114.21-135.99,139.15-329.67,143.65-355.26,143.65-.61,0-1.13,0-1.54,0-161.96-1.31-310.1-84.85-394.45-189.41C172.41,994.44,809.3,222.44,856.07,209.06c19.34-5.53,38.45-5.88,42.94-5.88M899.01,188.44c-5.74,0-26.08.46-47,6.45-4.2,1.2-16.98,4.85-67.85,63.91-35.43,41.13-75.75,93.91-113.54,148.62-47.61,68.94-90.6,139.59-127.77,209.99-44.73,84.71-79.93,167.19-104.61,245.14-33.51,105.8-47.75,203.73-42.33,291.05,3.04,48.99,12.36,95.37,27.7,137.86,16.41,45.47,40.12,87.59,70.47,125.21,21.91,27.16,47.73,52.66,76.72,75.79,29.58,23.59,61.96,44.3,96.25,61.55,35.72,17.97,73.14,31.98,111.23,41.66,40.23,10.22,81.15,15.57,121.61,15.9.45,0,1,0,1.66,0,15.34,0,70.78-1.45,140.07-20.15,40.18-10.84,78.14-25.67,112.82-44.07,42.65-22.63,80.64-50.85,112.92-83.87,58.23-59.59,97.82-134.72,117.66-223.3,17.27-77.12,19.71-164.8,7.23-260.6-9.31-71.49-26.84-147.1-52.1-224.72-22.03-67.7-49.18-134.83-80.69-199.53-55.69-114.37-118.57-206.4-156.48-229.01-3.32-1.98-7.36-3.99-12.04-6.31-16.53-8.21-41.52-20.63-66.46-47.27-8.22-8.78-15.25-17.86-22.05-26.64-17.26-22.29-33.56-43.34-63.51-52-17.74-5.13-37.78-5.6-38.62-5.62,0,0-.45-.01-1.3-.01h0Z"/>
        </g>
      </g>
    </g>
  </g>
  <circle class="cls-12" cx="636.16" cy="1038.22" r="104.26"/>
  <circle class="cls-12" cx="1163.84" cy="1040.92" r="104.26"/>
  <path class="cls-1" d="M604.89,1000.95c-8.69,17.96-17.38,35.91-26.06,53.87"/>
  <path class="cls-1" d="M667.15,1015.72c-6.47,13.03-12.94,26.07-19.4,39.1"/>
  <g>
    <path class="cls-5" d="M1176.87,999.8c8.69,17.96,17.38,35.91,26.06,53.87"/>
    <path class="cls-5" d="M1114.6,1014.57c6.47,13.03,12.94,26.07,19.4,39.1"/>
  </g>
  <ellipse class="cls-14" cx="765.62" cy="942.45" rx="35.91" ry="41.68"/>
  <ellipse class="cls-14" cx="1030.33" cy="942.45" rx="35.91" ry="41.68"/>
  <path class="cls-7" d="M855.4,999.8c1.78,2.46,15.48,20.68,39.97,22.01,27.98,1.52,44.57-20.38,45.76-22.01"/>
  <path class="cls-6" d="M780.1,425.78c-38.28,39.67-62.45,76.08-77.62,102.52-23.45,40.88-50.97,102.52-50.97,102.52"/>
  <path class="cls-6" d="M616.76,732.48c-2.74,5.35-5.47,11.15-8.11,17.38-3.23,7.62-5.89,14.9-8.11,21.72"/>
  <path class="cls-9" d="M1369.79,264.65c-50.69,21.19-69.96,40.46-91.16,91.15-1.25,2.98-5.46,2.98-6.71,0-21.19-50.69-40.46-69.96-91.15-91.15-2.98-1.25-2.98-5.46,0-6.71,50.69-21.2,69.96-40.47,91.15-91.16,1.25-2.98,5.46-2.98,6.71,0,21.2,50.69,40.47,69.96,91.16,91.16,2.98,1.25,2.98,5.46,0,6.71Z"/>
  <path class="cls-8" d="M1421.03,367.34c-15.09,6.94-22.23,14.08-29.17,29.17-1.29,2.81-5.3,2.81-6.59,0-6.94-15.09-14.08-22.23-29.17-29.17-2.81-1.29-2.81-5.3,0-6.59,15.09-6.94,22.23-14.08,29.17-29.17,1.29-2.81,5.3-2.81,6.59,0,6.94,15.09,14.08,22.22,29.17,29.17,2.81,1.29,2.81,5.3,0,6.59Z"/>
  <path class="cls-17" d="M1387.82,1040.92c-16.69,69.55-54.64,182.24-147.33,287.12-206.86,234.06-510.91,230.66-560.94,229.3,42.87,19.56,120.12,48.15,219.54,48.26,45.02.05,181.97-1.82,308.2-100.34,19.88-15.52,102.52-82.62,150.99-205.13,45.01-113.77,36.28-213.98,29.54-259.2Z"/>
  <g>
    <g id="_Mirror_Repeat_-3" data-name="&amp;lt;Mirror Repeat&amp;gt;">
      <g class="cls-15">
        <path class="cls-16" d="M900.99,203.18c4.49,0,23.6.35,42.94,5.88,46.77,13.37,683.66,785.38,350.52,1198.34-84.35,104.56-232.49,188.1-394.45,189.41-.42,0-.93,0-1.54,0-25.59,0-219.27-4.5-355.26-143.65-325.97-333.55,58.6-1052.89,161.38-1114.21,13.57-8.09,47.86-20.02,81.7-56.17,29.18-31.17,42.82-64.12,78.89-74.55,16.08-4.65,34.83-5.04,34.83-5.04,0,0,.34,0,.99,0M900.99,188.44v14.75-14.75c-.85,0-1.3.01-1.3.01-.85.02-20.89.49-38.62,5.62-29.95,8.66-46.25,29.71-63.51,52-6.8,8.78-13.83,17.86-22.05,26.64-24.94,26.64-49.92,39.06-66.46,47.27-4.67,2.32-8.71,4.33-12.04,6.31-37.9,22.61-100.79,114.65-156.48,229.01-31.51,64.7-58.65,131.83-80.69,199.53-25.26,77.62-42.79,153.23-52.1,224.72-12.47,95.81-10.04,183.49,7.23,260.6,19.84,88.58,59.43,163.72,117.66,223.3,32.27,33.03,70.27,61.24,112.92,83.87,34.68,18.4,72.63,33.22,112.82,44.07,69.29,18.7,124.73,20.15,140.07,20.15.66,0,1.21,0,1.66,0,40.46-.33,81.38-5.68,121.61-15.9,38.09-9.68,75.51-23.69,111.23-41.66,34.29-17.25,66.67-37.95,96.25-61.55,29-23.13,54.81-48.63,76.72-75.79,30.35-37.62,54.06-79.74,70.47-125.21,15.34-42.49,24.66-88.87,27.7-137.86,5.42-87.32-8.82-185.24-42.33-291.05-24.69-77.95-59.89-160.43-104.61-245.14-37.17-70.4-80.16-141.05-127.77-209.99-37.79-54.71-78.11-107.5-113.54-148.62-50.88-59.05-63.65-62.71-67.85-63.91-20.92-5.98-41.26-6.45-46.99-6.45h0Z"/>
      </g>
    </g>
    <g id="_Mirror_Repeat_-4" data-name="&amp;lt;Mirror Repeat&amp;gt;">
      <g class="cls-11">
        <path class="cls-16" d="M899.01,203.18c.65,0,.99,0,.99,0,0,0,18.75.39,34.83,5.04,36.08,10.43,49.71,43.38,78.89,74.55,33.84,36.15,68.14,48.08,81.7,56.17,102.77,61.32,487.35,780.65,161.38,1114.21-135.99,139.15-329.67,143.65-355.26,143.65-.61,0-1.13,0-1.54,0-161.96-1.31-310.1-84.85-394.45-189.41C172.41,994.44,809.3,222.44,856.07,209.06c19.34-5.53,38.45-5.88,42.94-5.88M899.01,188.44c-5.74,0-26.08.46-47,6.45-4.2,1.2-16.98,4.85-67.85,63.91-35.43,41.13-75.75,93.91-113.54,148.62-47.61,68.94-90.6,139.59-127.77,209.99-44.73,84.71-79.93,167.19-104.61,245.14-33.51,105.8-47.75,203.73-42.33,291.05,3.04,48.99,12.36,95.37,27.7,137.86,16.41,45.47,40.12,87.59,70.47,125.21,21.91,27.16,47.73,52.66,76.72,75.79,29.58,23.59,61.96,44.3,96.25,61.55,35.72,17.97,73.14,31.98,111.23,41.66,40.23,10.22,81.15,15.57,121.61,15.9.45,0,1,0,1.66,0,15.34,0,70.78-1.45,140.07-20.15,40.18-10.84,78.14-25.67,112.82-44.07,42.65-22.63,80.64-50.85,112.92-83.87,58.23-59.59,97.82-134.72,117.66-223.3,17.27-77.12,19.71-164.8,7.23-260.6-9.31-71.49-26.84-147.1-52.1-224.72-22.03-67.7-49.18-134.83-80.69-199.53-55.69-114.37-118.57-206.4-156.48-229.01-3.32-1.98-7.36-3.99-12.04-6.31-16.53-8.21-41.52-20.63-66.46-47.27-8.22-8.78-15.25-17.86-22.05-26.64-17.26-22.29-33.56-43.34-63.51-52-17.74-5.13-37.78-5.6-38.62-5.62,0,0-.45-.01-1.3-.01h0Z"/>
      </g>
    </g>
  </g>
  <g>
    <path class="cls-3" d="M1057.75,546.07c15.03,21.64,26.58,45.68,34.1,70.92"/>
    <path class="cls-3" d="M1140,684.47c2.61,10.37,5.21,20.75,7.82,31.12"/>
    <path class="cls-3" d="M1057.42,668.74c1.09,10.41,2.18,20.82,3.27,31.23"/>
    <path class="cls-2" d="M1232.22,1210.62c-18.58,71.32-66.21,134.62-129.6,172.22"/>
    <path class="cls-2" d="M1036.44,1416.97c-6.89,3.01-13.78,6.03-20.68,9.04"/>
    <path class="cls-3" d="M638.03,1270.26c-.59,7.62,2.43,15.45,7.99,20.69"/>
    <path class="cls-3" d="M553.49,1262.13c-6.72,13.24-2.64,31.01,9.18,39.99"/>
    <path class="cls-3" d="M670.43,1357.43c1.46,10,6,19.52,12.84,26.96"/>
  </g>
</svg>